<?xml version="1.0" encoding="UTF-8" standalone="no"?>
<svg
   xml:space="preserve"
   width="293.06113"
   height="293.06113"
   version="1.1"
   style="clip-rule:evenodd;fill-rule:evenodd;image-rendering:optimizeQuality;shape-rendering:geometricPrecision;text-rendering:geometricPrecision"
   viewBox="0 0 7753.9395 7753.9395"
   id="svg66"
   sodipodi:docname="logo-aksara.svg"
   inkscape:version="1.3.1 (91b66b0783, 2023-11-16)"
   xmlns:inkscape="http://www.inkscape.org/namespaces/inkscape"
   xmlns:sodipodi="http://sodipodi.sourceforge.net/DTD/sodipodi-0.dtd"
   xmlns="http://www.w3.org/2000/svg"
   xmlns:svg="http://www.w3.org/2000/svg"><sodipodi:namedview
     id="namedview1"
     pagecolor="#ffffff"
     bordercolor="#111111"
     borderopacity="1"
     inkscape:showpageshadow="0"
     inkscape:pageopacity="0"
     inkscape:pagecheckerboard="1"
     inkscape:deskcolor="#d1d1d1"
     inkscape:zoom="2.5625"
     inkscape:cx="146.73171"
     inkscape:cy="146.34146"
     inkscape:window-width="1920"
     inkscape:window-height="1051"
     inkscape:window-x="-9"
     inkscape:window-y="-9"
     inkscape:window-maximized="1"
     inkscape:current-layer="svg66" /><defs
     id="defs1"><style
       type="text/css"
       id="style1">.str0{stroke:#4f1e6f;stroke-width:84.67;stroke-linecap:round;stroke-linejoin:round;stroke-miterlimit:22.9256}.fil0{fill:none}.fil4{fill:#80f5fe}.fil3{fill:#a0a7f8}.fil1{fill:#aa58d6}.fil5{fill:#b7eff0}.fil2{fill:#cb88f2}.fil6{fill:#f2f1b9}</style></defs><g
     id="Layer_x0020_1"
     transform="translate(-356.11237,-356.95513)"><g
       id="_2947898846800"><g
         id="g3"><path
           class="fil0 str0"
           id="rect1"
           d="M 1539,1539 H 6927 V 6927 H 1539 Z" /><path
           class="fil0 str0"
           transform="matrix(1.1119678,-1.1119678,1.1279555,1.1279555,423.16422,4233.6088)"
           id="rect2"
           d="M 0,0 H 3426 V 3378 H 0 Z" /><path
           class="fil0 str0"
           id="polygon2"
           d="M 1539,6927 423,4233 1539,1539 4233,423 6927,1539 8043,4233 6927,6927 4233,8043 Z" /><path
           class="fil0 str0"
           id="polygon3"
           d="M 6927,6927 4233,423 1539,6927 8043,4233 1539,1539 4233,8043 6927,1539 423,4233 Z" /><circle
           class="fil0 str0"
           cx="4233.2998"
           cy="4233.2998"
           r="3810"
           id="circle3" /></g><path
         class="fil1 str0"
         d="M 4233,423 A 3798,3798 0 0 0 1539,1539 Z"
         id="path3" /><path
         class="fil1 str0"
         d="M 4233,423 6927,1539 A 3798,3798 0 0 0 4233,423 Z"
         id="path4" /><path
         class="fil1 str0"
         d="M 423,4233 1539,1539 A 3798,3798 0 0 0 423,4233 Z"
         id="path5" /><path
         class="fil1 str0"
         d="M 1539,6927 423,4233 c 0,1052 427,2005 1116,2694 z"
         id="path6" /><path
         class="fil1 str0"
         d="M 4233,8043 1539,6927 a 3798,3798 0 0 0 2694,1116 z"
         id="path7" /><path
         class="fil1 str0"
         d="M 6927,6927 4233,8043 c 1052,0 2005,-426 2694,-1116 z"
         id="path8" /><path
         class="fil1 str0"
         d="M 8043,4233 6927,6927 A 3798,3798 0 0 0 8043,4233 Z"
         id="path9" /><path
         class="fil1 str0"
         d="M 6927,1539 8043,4233 C 8043,3181 7617,2229 6927,1539 Z"
         id="path10" /><path
         class="fil2 str0"
         id="polygon10"
         d="M 1539,6927 V 5349 L 423,4233 Z" /><path
         class="fil2 str0"
         id="polygon11"
         d="M 423,4233 1539,3117 V 1539 Z" /><path
         class="fil2 str0"
         id="polygon12"
         d="M 1539,1539 H 3117 L 4233,423 Z" /><path
         class="fil2 str0"
         id="polygon13"
         d="M 4233,423 5349,1539 H 6927 Z" /><path
         class="fil2 str0"
         id="polygon14"
         d="M 6927,1539 V 3117 L 8043,4233 Z" /><path
         class="fil2 str0"
         id="polygon15"
         d="M 8043,4233 6927,5349 v 1578 z" /><path
         class="fil2 str0"
         id="polygon16"
         d="M 6927,6927 H 5349 L 4233,8043 Z" /><path
         class="fil2 str0"
         id="polygon17"
         d="M 4233,8043 3117,6927 H 1539 Z" /><path
         class="fil3 str0"
         id="polygon18"
         d="M 1539,6927 H 3117 L 2655,6465 Z" /><path
         class="fil3 str0"
         id="polygon19"
         d="M 1539,6927 2001,5811 1539,5349 Z" /><path
         class="fil3 str0"
         id="polygon20"
         d="M 3117,6927 4233,8043 3771,6927 Z" /><path
         class="fil3 str0"
         id="polygon21"
         d="M 4696,6927 4233,8043 5349,6927 Z" /><path
         class="fil3 str0"
         id="polygon22"
         d="M 5349,6927 H 6927 L 5811,6465 Z" /><path
         class="fil3 str0"
         id="polygon23"
         d="m 6465,5811 462,1116 V 5349 Z" /><path
         class="fil3 str0"
         id="polygon24"
         d="M 1539,5349 V 4696 L 423,4233 Z" /><path
         class="fil3 str0"
         id="polygon25"
         d="M 423,4233 1539,3771 V 3117 Z" /><path
         class="fil3 str0"
         id="polygon26"
         d="m 1539,1539 v 1578 l 462,-462 z" /><path
         class="fil3 str0"
         id="polygon27"
         d="m 1539,1539 1116,462 462,-462 z" /><path
         class="fil3 str0"
         id="polygon28"
         d="M 4233,423 3117,1539 h 654 z" /><path
         class="fil3 str0"
         id="polygon29"
         d="m 4233,423 463,1116 h 653 z" /><path
         class="fil3 str0"
         id="polygon30"
         d="M 6927,1539 H 5349 l 462,462 z" /><path
         class="fil3 str0"
         id="polygon31"
         d="m 6927,1539 -462,1116 462,462 z" /><path
         class="fil3 str0"
         id="polygon32"
         d="M 8043,4233 6927,3117 v 654 z" /><path
         class="fil3 str0"
         id="polygon33"
         d="m 8043,4233 -1116,463 v 653 z" /><path
         class="fil4 str0"
         id="polygon34"
         d="M 2001,2655 2655,2001 1539,1539 Z" /><path
         class="fil4 str0"
         id="polygon35"
         d="m 4233,423 -462,1116 h 925 z" /><path
         class="fil4 str0"
         id="polygon36"
         d="m 6927,1539 -1116,462 654,654 z" /><path
         class="fil4 str0"
         id="polygon37"
         d="M 8043,4233 6927,3771 v 925 z" /><path
         class="fil4 str0"
         id="polygon38"
         d="M 6927,6927 6465,5811 5811,6465 Z" /><path
         class="fil4 str0"
         id="polygon39"
         d="M 4233,8043 4696,6927 H 3771 Z" /><path
         class="fil4 str0"
         id="polygon40"
         d="M 1539,6927 2655,6465 2001,5811 Z" /><path
         class="fil4 str0"
         id="polygon41"
         d="m 423,4233 1116,463 v -925 z" /><path
         class="fil4 str0"
         id="polygon42"
         d="m 4696,1539 326,789 789,-327 -462,-462 z" /><path
         class="fil4 str0"
         id="polygon43"
         d="m 3444,2328 327,-789 h -654 l -462,462 z" /><path
         class="fil4 str0"
         id="polygon44"
         d="m 2328,3444 -327,-789 -462,462 v 654 z" /><path
         class="fil4 str0"
         id="polygon45"
         d="m 2328,5022 -789,-326 v 653 l 462,462 z" /><path
         class="fil4 str0"
         id="polygon46"
         d="m 3444,6138 -789,327 462,462 h 654 z" /><path
         class="fil4 str0"
         id="polygon47"
         d="m 5022,6138 -326,789 h 653 l 462,-462 z" /><path
         class="fil4 str0"
         id="polygon48"
         d="m 6138,5022 327,789 462,-462 v -653 z" /><path
         class="fil4 str0"
         id="polygon49"
         d="m 6138,3444 789,327 v -654 l -462,-462 z" /><path
         class="fil5 str0"
         id="polygon50"
         d="m 4233,2655 789,-327 -326,-789 h -925 l -327,789 z" /><path
         class="fil5 str0"
         id="polygon51"
         d="m 5022,2328 327,789 789,327 327,-789 -654,-654 z" /><path
         class="fil5 str0"
         id="polygon52"
         d="m 6138,3444 -327,789 327,789 789,-326 v -925 z" /><path
         class="fil5 str0"
         id="polygon53"
         d="m 6138,5022 -789,327 -327,789 789,327 654,-654 z" /><path
         class="fil5 str0"
         id="polygon54"
         d="m 5022,6138 -789,-327 -789,327 327,789 h 925 z" /><path
         class="fil5 str0"
         id="polygon55"
         d="m 3444,6138 -327,-789 -789,-327 -327,789 654,654 z" /><path
         class="fil5 str0"
         id="polygon56"
         d="m 2328,5022 327,-789 -327,-789 -789,327 v 925 z" /><path
         class="fil5 str0"
         id="polygon57"
         d="m 2328,3444 789,-327 327,-789 -789,-327 -654,654 z" /><path
         class="fil6 str0"
         id="polygon58"
         d="m 3444,2328 -327,789 1116,-462 z" /><path
         class="fil6 str0"
         id="polygon59"
         d="m 4233,2655 1116,462 -327,-789 z" /><path
         class="fil6 str0"
         id="polygon60"
         d="m 5349,3117 462,1116 327,-789 z" /><path
         class="fil6 str0"
         id="polygon61"
         d="m 5811,4233 -462,1116 789,-327 z" /><path
         class="fil6 str0"
         id="polygon62"
         d="m 5349,5349 -1116,462 789,327 z" /><path
         class="fil6 str0"
         id="polygon63"
         d="m 4233,5811 -1116,-462 327,789 z" /><path
         class="fil6 str0"
         id="polygon64"
         d="M 3117,5349 2655,4233 2328,5022 Z" /><path
         class="fil6 str0"
         id="polygon65"
         d="m 2655,4233 462,-1116 -789,327 z" /><path
         class="str0"
         id="polygon66"
         style="fill:#ffc495"
         d="M 3117,3117 2655,4233 3117,5349 4233,5811 5349,5349 5811,4233 5349,3117 4233,2655 Z" /></g></g></svg>
