<?xml version="1.0" encoding="UTF-8" standalone="no"?>
<!-- Creator: CorelDRAW 2021 (64-Bit) -->

<svg
   xml:space="preserve"
   width="84.6666mm"
   height="84.6666mm"
   version="1.1"
   style="shape-rendering:geometricPrecision; text-rendering:geometricPrecision; image-rendering:optimizeQuality; fill-rule:evenodd; clip-rule:evenodd"
   viewBox="0 0 8466.66 8466.66"
   id="svg66"
   xmlns="http://www.w3.org/2000/svg"
   xmlns:svg="http://www.w3.org/2000/svg">
 <defs
   id="defs1">
  <style
   type="text/css"
   id="style1">
   <![CDATA[
    .str0 {stroke:#4F1E6F;stroke-width:84.67;stroke-linecap:round;stroke-linejoin:round;stroke-miterlimit:22.9256}
    .fil0 {fill:none}
    .fil4 {fill:#80F5FE}
    .fil3 {fill:#A0A7F8}
    .fil1 {fill:#AA58D6}
    .fil5 {fill:#B7EFF0}
    .fil2 {fill:#CB88F2}
    .fil6 {fill:#F2F1B9}
    .fil7 {fill:#FFC495}
   ]]>
  </style>
 </defs>
 <g
   id="Layer_x0020_1">
  <metadata
   id="CorelCorpID_0Corel-Layer" />
  <g
   id="_2947898846800">
   <g
   id="g3">
    <rect
   class="fil0 str0"
   x="1539.24"
   y="1539.26"
   width="5388.15"
   height="5388.15"
   id="rect1" />
    <rect
   class="fil0 str0"
   transform="matrix(1.11197 -1.11197 1.12795 1.12795 423.322 4233.33)"
   width="3426.35"
   height="3377.81"
   id="rect2" />
    <polygon
   class="fil0 str0"
   points="1539.25,6927.41 423.33,4233.33 1539.25,1539.26 4233.33,423.33 6927.4,1539.26 8043.33,4233.33 6927.4,6927.41 4233.33,8043.33 "
   id="polygon2" />
    <polygon
   class="fil0 str0"
   points="6927.4,6927.41 4233.33,423.33 1539.25,6927.41 8043.33,4233.33 1539.25,1539.26 4233.33,8043.33 6927.4,1539.26 423.33,4233.33 "
   id="polygon3" />
    <circle
   class="fil0 str0"
   cx="4233.33"
   cy="4233.33"
   r="3810"
   id="circle3" />
   </g>
   <path
   class="fil1 str0"
   d="M4233.33 423.33c-1052.1,0 -2004.61,426.45 -2694.08,1115.93l2694.08 -1115.93z"
   id="path3" />
   <path
   class="fil1 str0"
   d="M4233.33 423.33l2694.08 1115.92c-689.47,-689.47 -1641.98,-1115.92 -2694.08,-1115.92z"
   id="path4" />
   <path
   class="fil1 str0"
   d="M423.33 4233.33l1115.92 -2694.07c-689.47,689.47 -1115.92,1641.97 -1115.92,2694.07z"
   id="path5" />
   <path
   class="fil1 str0"
   d="M1539.25 6927.41l-1115.92 -2694.08c0,1052.1 426.45,2004.6 1115.92,2694.08z"
   id="path6" />
   <path
   class="fil1 str0"
   d="M4233.33 8043.33l-2694.08 -1115.93c689.47,689.48 1641.98,1115.93 2694.08,1115.93z"
   id="path7" />
   <path
   class="fil1 str0"
   d="M6927.4 6927.41l-2694.07 1115.92c1052.1,0 2004.6,-426.45 2694.07,-1115.92z"
   id="path8" />
   <path
   class="fil1 str0"
   d="M8043.33 4233.33l-1115.93 2694.08c689.48,-689.47 1115.93,-1641.98 1115.93,-2694.08z"
   id="path9" />
   <path
   class="fil1 str0"
   d="M6927.4 1539.26l1115.93 2694.07c0,-1052.1 -426.45,-2004.61 -1115.93,-2694.07z"
   id="path10" />
   <polygon
   class="fil2 str0"
   points="1539.25,6927.41 1539.25,5349.25 423.33,4233.33 "
   id="polygon10" />
   <polygon
   class="fil2 str0"
   points="423.33,4233.33 1539.25,3117.41 1539.25,1539.26 "
   id="polygon11" />
   <polygon
   class="fil2 str0"
   points="1539.25,1539.26 3117.4,1539.26 4233.33,423.33 "
   id="polygon12" />
   <polygon
   class="fil2 str0"
   points="4233.33,423.33 5349.26,1539.26 6927.41,1539.25 "
   id="polygon13" />
   <polygon
   class="fil2 str0"
   points="6927.4,1539.26 6927.4,3117.4 8043.33,4233.33 "
   id="polygon14" />
   <polygon
   class="fil2 str0"
   points="8043.33,4233.33 6927.4,5349.26 6927.4,6927.41 "
   id="polygon15" />
   <polygon
   class="fil2 str0"
   points="6927.4,6927.41 5349.25,6927.41 4233.33,8043.33 "
   id="polygon16" />
   <polygon
   class="fil2 str0"
   points="4233.33,8043.33 3117.41,6927.41 1539.25,6927.4 "
   id="polygon17" />
   <polygon
   class="fil3 str0"
   points="1539.25,6927.41 3117.41,6927.41 2655.18,6465.18 "
   id="polygon18" />
   <polygon
   class="fil3 str0"
   points="1539.25,6927.41 2001.48,5811.48 1539.25,5349.25 "
   id="polygon19" />
   <polygon
   class="fil3 str0"
   points="3117.41,6927.41 4233.33,8043.33 3771.1,6927.41 "
   id="polygon20" />
   <polygon
   class="fil3 str0"
   points="4695.56,6927.41 4233.33,8043.33 5349.25,6927.41 "
   id="polygon21" />
   <polygon
   class="fil3 str0"
   points="5349.25,6927.41 6927.4,6927.41 5811.48,6465.18 "
   id="polygon22" />
   <polygon
   class="fil3 str0"
   points="6465.17,5811.49 6927.4,6927.41 6927.4,5349.26 "
   id="polygon23" />
   <polygon
   class="fil3 str0"
   points="1539.25,5349.25 1539.25,4695.56 423.33,4233.33 "
   id="polygon24" />
   <polygon
   class="fil3 str0"
   points="423.33,4233.33 1539.25,3771.1 1539.25,3117.41 "
   id="polygon25" />
   <polygon
   class="fil3 str0"
   points="1539.25,1539.26 1539.25,3117.41 2001.48,2655.18 "
   id="polygon26" />
   <polygon
   class="fil3 str0"
   points="1539.25,1539.26 2655.17,2001.49 3117.4,1539.26 "
   id="polygon27" />
   <polygon
   class="fil3 str0"
   points="4233.33,423.33 3117.4,1539.26 3771.09,1539.26 "
   id="polygon28" />
   <polygon
   class="fil3 str0"
   points="4233.33,423.33 4695.56,1539.26 5349.26,1539.26 "
   id="polygon29" />
   <polygon
   class="fil3 str0"
   points="6927.41,1539.25 5349.26,1539.26 5811.49,2001.49 "
   id="polygon30" />
   <polygon
   class="fil3 str0"
   points="6927.4,1539.26 6465.17,2655.17 6927.4,3117.4 "
   id="polygon31" />
   <polygon
   class="fil3 str0"
   points="8043.33,4233.33 6927.4,3117.4 6927.4,3771.1 "
   id="polygon32" />
   <polygon
   class="fil3 str0"
   points="8043.33,4233.33 6927.4,4695.57 6927.4,5349.26 "
   id="polygon33" />
   <polygon
   class="fil4 str0"
   points="2001.48,2655.18 2655.17,2001.49 1539.25,1539.26 "
   id="polygon34" />
   <polygon
   class="fil4 str0"
   points="4233.33,423.33 3771.09,1539.26 4695.56,1539.26 "
   id="polygon35" />
   <polygon
   class="fil4 str0"
   points="6927.41,1539.25 5811.49,2001.49 6465.17,2655.17 "
   id="polygon36" />
   <polygon
   class="fil4 str0"
   points="8043.33,4233.33 6927.4,3771.1 6927.4,4695.57 "
   id="polygon37" />
   <polygon
   class="fil4 str0"
   points="6927.4,6927.41 6465.17,5811.49 5811.48,6465.18 "
   id="polygon38" />
   <polygon
   class="fil4 str0"
   points="4233.33,8043.33 4695.56,6927.41 3771.1,6927.41 "
   id="polygon39" />
   <polygon
   class="fil4 str0"
   points="1539.25,6927.41 2655.18,6465.18 2001.49,5811.48 "
   id="polygon40" />
   <polygon
   class="fil4 str0"
   points="423.33,4233.33 1539.25,4695.56 1539.25,3771.1 "
   id="polygon41" />
   <polygon
   class="fil4 str0"
   points="4695.56,1539.26 5022.41,2328.33 5811.49,2001.49 5349.26,1539.26 "
   id="polygon42" />
   <polygon
   class="fil4 str0"
   points="3444.25,2328.34 3771.09,1539.26 3117.4,1539.26 2655.17,2001.49 "
   id="polygon43" />
   <polygon
   class="fil4 str0"
   points="2328.33,3444.25 2001.48,2655.18 1539.25,3117.41 1539.25,3771.1 "
   id="polygon44" />
   <polygon
   class="fil4 str0"
   points="2328.33,5022.41 1539.25,4695.56 1539.25,5349.25 2001.49,5811.48 "
   id="polygon45" />
   <polygon
   class="fil4 str0"
   points="3444.25,6138.33 2655.18,6465.18 3117.41,6927.41 3771.1,6927.41 "
   id="polygon46" />
   <polygon
   class="fil4 str0"
   points="5022.41,6138.33 4695.56,6927.41 5349.25,6927.41 5811.48,6465.18 "
   id="polygon47" />
   <polygon
   class="fil4 str0"
   points="6138.32,5022.41 6465.17,5811.49 6927.4,5349.26 6927.4,4695.57 "
   id="polygon48" />
   <polygon
   class="fil4 str0"
   points="6138.33,3444.25 6927.4,3771.1 6927.4,3117.4 6465.17,2655.17 "
   id="polygon49" />
   <polygon
   class="fil5 str0"
   points="4233.33,2655.18 5022.41,2328.33 4695.56,1539.26 3771.09,1539.26 3444.25,2328.34 "
   id="polygon50" />
   <polygon
   class="fil5 str0"
   points="5022.41,2328.33 5349.25,3117.41 6138.33,3444.25 6465.17,2655.17 5811.49,2001.49 "
   id="polygon51" />
   <polygon
   class="fil5 str0"
   points="6138.33,3444.25 5811.48,4233.33 6138.32,5022.41 6927.4,4695.57 6927.4,3771.1 "
   id="polygon52" />
   <polygon
   class="fil5 str0"
   points="6138.32,5022.41 5349.25,5349.25 5022.41,6138.33 5811.48,6465.18 6465.17,5811.49 "
   id="polygon53" />
   <polygon
   class="fil5 str0"
   points="5022.41,6138.33 4233.33,5811.49 3444.25,6138.33 3771.1,6927.41 4695.56,6927.41 "
   id="polygon54" />
   <polygon
   class="fil5 str0"
   points="3444.25,6138.33 3117.41,5349.25 2328.33,5022.41 2001.49,5811.48 2655.18,6465.18 "
   id="polygon55" />
   <polygon
   class="fil5 str0"
   points="2328.33,5022.41 2655.17,4233.33 2328.33,3444.25 1539.25,3771.1 1539.25,4695.56 "
   id="polygon56" />
   <polygon
   class="fil5 str0"
   points="2328.33,3444.25 3117.41,3117.41 3444.25,2328.34 2655.17,2001.49 2001.48,2655.18 "
   id="polygon57" />
   <polygon
   class="fil6 str0"
   points="3444.25,2328.34 3117.41,3117.41 4233.33,2655.18 "
   id="polygon58" />
   <polygon
   class="fil6 str0"
   points="4233.33,2655.18 5349.25,3117.41 5022.41,2328.33 "
   id="polygon59" />
   <polygon
   class="fil6 str0"
   points="5349.25,3117.41 5811.48,4233.33 6138.33,3444.25 "
   id="polygon60" />
   <polygon
   class="fil6 str0"
   points="5811.48,4233.33 5349.25,5349.25 6138.32,5022.41 "
   id="polygon61" />
   <polygon
   class="fil6 str0"
   points="5349.25,5349.25 4233.33,5811.49 5022.41,6138.33 "
   id="polygon62" />
   <polygon
   class="fil6 str0"
   points="4233.33,5811.49 3117.41,5349.25 3444.25,6138.33 "
   id="polygon63" />
   <polygon
   class="fil6 str0"
   points="3117.4,5349.25 2655.17,4233.33 2328.33,5022.41 "
   id="polygon64" />
   <polygon
   class="fil6 str0"
   points="2655.17,4233.33 3117.41,3117.41 2328.33,3444.25 "
   id="polygon65" />
   <polygon
   class="fil7 str0"
   points="3117.41,3117.41 2655.17,4233.33 3117.41,5349.25 4233.33,5811.49 5349.25,5349.25 5811.48,4233.33 5349.25,3117.41 4233.33,2655.18 "
   id="polygon66" />
  </g>
 </g>
</svg>
