<?xml version="1.0" encoding="UTF-8" standalone="no"?>
<!-- Created with Inkscape (http://www.inkscape.org/) -->

<svg
   width="640mm"
   height="360mm"
   viewBox="0 0 640 360"
   version="1.1"
   id="svg1"
   xmlns="http://www.w3.org/2000/svg"
   xmlns:svg="http://www.w3.org/2000/svg">
  <defs
     id="defs1" />
  <g
     id="layer1">
    <path
       style="fill:#ffffff;stroke-width:0.264583"
       d="m 86.291154,54.551143 0.428354,3.80691 c 0.260551,2.31421 2.087049,4.140706 4.401261,4.401265 l 3.80691,0.428359 -3.80691,0.428358 c -2.314212,0.260559 -4.14071,2.086797 -4.401261,4.401265 L 86.291154,71.824209 85.862795,68.0173 c -0.260563,-2.31421 -2.086807,-4.140706 -4.401273,-4.401265 l -3.806908,-0.428358 3.806908,-0.428359 c 2.314213,-0.260559 4.14071,-2.086798 4.401273,-4.401265 z"
       id="path1" />
    <path
       style="fill:#ffffff;stroke-width:0.264583"
       d="m 82.430624,161.44516 0.42836,3.80691 c 0.26055,2.31421 2.08704,4.1407 4.40126,4.40126 l 3.80691,0.42836 -3.80691,0.42836 c -2.31422,0.26056 -4.14071,2.0868 -4.40126,4.40126 l -0.42836,3.80691 -0.42836,-3.80691 c -0.26056,-2.31421 -2.0868,-4.1407 -4.40127,-4.40126 l -3.80691,-0.42836 3.80691,-0.42836 c 2.31421,-0.26056 4.14071,-2.0868 4.40127,-4.40126 z"
       id="path1-7" />
    <path
       style="fill:#ffffff;stroke-width:0.264583"
       d="m 125.9602,108.64358 0.42836,3.80691 c 0.26055,2.31421 2.08705,4.14071 4.40126,4.40127 l 3.80691,0.42836 -3.80691,0.42835 c -2.31421,0.26056 -4.14071,2.0868 -4.40126,4.40127 l -0.42836,3.80691 -0.42835,-3.80691 c -0.26057,-2.31421 -2.08681,-4.14071 -4.40128,-4.40127 l -3.80691,-0.42835 3.80691,-0.42836 c 2.31422,-0.26056 4.14071,-2.0868 4.40128,-4.40127 z"
       id="path1-75" />
    <path
       style="fill:#ffffff;stroke-width:0.264583"
       d="m 136.26738,266.43239 0.42835,3.80691 c 0.26055,2.31421 2.08705,4.14071 4.40126,4.40127 l 3.80691,0.42836 -3.80691,0.42836 c -2.31421,0.26055 -4.14071,2.08679 -4.40126,4.40126 l -0.42835,3.80691 -0.42836,-3.80691 c -0.26057,-2.31421 -2.08681,-4.14071 -4.40128,-4.40126 l -3.8069,-0.42836 3.8069,-0.42836 c 2.31422,-0.26056 4.14071,-2.0868 4.40128,-4.40127 z"
       id="path1-9" />
    <path
       style="fill:#ffffff;stroke-width:0.264583"
       d="m 176.66508,202.84179 0.42835,3.80691 c 0.26055,2.31421 2.08705,4.14071 4.40126,4.40127 l 3.80691,0.42836 -3.80691,0.42835 c -2.31421,0.26056 -4.14071,2.0868 -4.40126,4.40127 l -0.42835,3.80691 -0.42836,-3.80691 c -0.26056,-2.31421 -2.08681,-4.14071 -4.40127,-4.40127 l -3.80691,-0.42835 3.80691,-0.42836 c 2.31421,-0.26056 4.14071,-2.0868 4.40127,-4.40127 z"
       id="path1-90" />
    <path
       style="fill:#ffffff;stroke-width:0.264583"
       d="m 77.461255,294.19435 0.42836,3.80691 c 0.26055,2.31421 2.08705,4.14071 4.40126,4.40127 l 3.80691,0.42836 -3.80691,0.42836 c -2.31421,0.26055 -4.14071,2.08679 -4.40126,4.40126 l -0.42836,3.80691 -0.42836,-3.80691 c -0.26056,-2.31421 -2.0868,-4.14071 -4.40127,-4.40126 l -3.80691,-0.42836 3.80691,-0.42836 c 2.31421,-0.26056 4.14071,-2.0868 4.40127,-4.40127 z"
       id="path1-4" />
    <path
       style="fill:#ffffff;stroke-width:0.264583"
       d="m 220.86324,292.53404 0.42836,3.80691 c 0.26055,2.31421 2.08704,4.14071 4.40126,4.40127 l 3.80691,0.42836 -3.80691,0.42835 c -2.31422,0.26056 -4.14071,2.0868 -4.40126,4.40127 l -0.42836,3.80691 -0.42836,-3.80691 c -0.26056,-2.31421 -2.0868,-4.14071 -4.40127,-4.40127 l -3.80691,-0.42835 3.80691,-0.42836 c 2.31421,-0.26056 4.14071,-2.0868 4.40127,-4.40127 z"
       id="path1-48" />
    <path
       style="fill:#ffffff;stroke-width:0.264583"
       d="m 275.19174,215.69044 0.42836,3.80691 c 0.26055,2.31421 2.08705,4.14071 4.40126,4.40127 l 3.80691,0.42836 -3.80691,0.42835 c -2.31421,0.26056 -4.14071,2.0868 -4.40126,4.40127 l -0.42836,3.80691 -0.42836,-3.80691 c -0.26056,-2.31421 -2.0868,-4.14071 -4.40127,-4.40127 l -3.80691,-0.42835 3.80691,-0.42836 c 2.31421,-0.26056 4.14071,-2.0868 4.40127,-4.40127 z"
       id="path1-0" />
    <path
       style="fill:#ffffff;stroke-width:0.264583"
       d="m 238.68729,165.47431 0.42836,3.80691 c 0.26055,2.31421 2.08705,4.14071 4.40126,4.40127 l 3.80691,0.42836 -3.80691,0.42836 c -2.31421,0.26055 -4.14071,2.08679 -4.40126,4.40126 l -0.42836,3.80691 -0.42836,-3.80691 c -0.26056,-2.31421 -2.0868,-4.14071 -4.40127,-4.40126 l -3.80691,-0.42836 3.80691,-0.42836 c 2.31422,-0.26056 4.14071,-2.0868 4.40127,-4.40127 z"
       id="path1-6" />
    <path
       style="fill:#ffffff;stroke-width:0.264583"
       d="m 220.84545,102.41874 0.42836,3.80691 c 0.26055,2.31421 2.08705,4.14071 4.40126,4.40127 l 3.80691,0.42836 -3.80691,0.42836 c -2.31421,0.26055 -4.14071,2.08679 -4.40126,4.40126 l -0.42836,3.80691 -0.42836,-3.80691 c -0.26056,-2.31421 -2.0868,-4.14071 -4.40127,-4.40127 l -3.80691,-0.42835 3.80691,-0.42836 c 2.31421,-0.26056 4.14071,-2.0868 4.40127,-4.40127 z"
       id="path1-5" />
    <path
       style="fill:#ffffff;stroke-width:0.264583"
       d="m 395.86607,108.55349 0.42836,3.80691 c 0.26055,2.31421 2.08705,4.1407 4.40126,4.40126 l 3.80691,0.42836 -3.80691,0.42836 c -2.31421,0.26056 -4.14071,2.0868 -4.40126,4.40126 l -0.42836,3.80691 -0.42836,-3.80691 c -0.26056,-2.31421 -2.0868,-4.1407 -4.40127,-4.40126 l -3.80691,-0.42836 3.80691,-0.42836 c 2.31421,-0.26056 4.14071,-2.0868 4.40127,-4.40126 z"
       id="path1-62" />
    <path
       style="fill:#ffffff;stroke-width:0.264583"
       d="m 398.58153,197.37112 0.42836,3.80691 c 0.26055,2.31421 2.08705,4.1407 4.40126,4.40126 l 3.80691,0.42836 -3.80691,0.42836 c -2.31421,0.26056 -4.14071,2.0868 -4.40126,4.40126 l -0.42836,3.80691 -0.42836,-3.80691 c -0.26056,-2.31421 -2.0868,-4.1407 -4.40127,-4.40126 l -3.80691,-0.42836 3.80691,-0.42836 c 2.31421,-0.26056 4.14071,-2.0868 4.40127,-4.40126 z"
       id="path1-8" />
    <path
       style="fill:#ffffff;stroke-width:0.264583"
       d="m 383.5981,278.17724 0.42836,3.80691 c 0.26055,2.31421 2.08705,4.14071 4.40126,4.40127 l 3.80691,0.42836 -3.80691,0.42836 c -2.31421,0.26055 -4.14071,2.08679 -4.40126,4.40126 l -0.42836,3.80691 -0.42836,-3.80691 c -0.26056,-2.31421 -2.0868,-4.14071 -4.40127,-4.40126 l -3.80691,-0.42836 3.80691,-0.42836 c 2.31421,-0.26056 4.14071,-2.0868 4.40127,-4.40127 z"
       id="path1-77" />
    <path
       style="fill:#ffffff;stroke-width:0.264583"
       d="m 531.07738,321.87007 0.42836,3.80691 c 0.26055,2.31421 2.08705,4.14071 4.40126,4.40127 l 3.80691,0.42836 -3.80691,0.42835 c -2.31421,0.26056 -4.14071,2.0868 -4.40126,4.40127 l -0.42836,3.80691 -0.42836,-3.80691 c -0.26056,-2.31421 -2.0868,-4.14071 -4.40127,-4.40127 l -3.80691,-0.42835 3.80691,-0.42836 c 2.31421,-0.26056 4.14071,-2.0868 4.40127,-4.40127 z"
       id="path1-57" />
    <path
       style="fill:#ffffff;stroke-width:0.264583"
       d="m 484.03692,258.18401 0.42836,3.80691 c 0.26055,2.31421 2.08705,4.14071 4.40126,4.40127 l 3.80691,0.42836 -3.80691,0.42835 c -2.31421,0.26056 -4.14071,2.0868 -4.40126,4.40127 l -0.42836,3.80691 -0.42835,-3.80691 c -0.26057,-2.31421 -2.08681,-4.14071 -4.40128,-4.40127 l -3.80691,-0.42835 3.80691,-0.42836 c 2.31421,-0.26056 4.14071,-2.0868 4.40128,-4.40127 z"
       id="path1-66" />
    <path
       style="fill:#ffffff;stroke-width:0.264583"
       d="m 554.3233,184.39914 0.42836,3.80691 c 0.26055,2.31421 2.08705,4.14071 4.40126,4.40127 l 3.80691,0.42836 -3.80691,0.42835 c -2.31421,0.26056 -4.14071,2.0868 -4.40126,4.40127 l -0.42836,3.80691 -0.42835,-3.80691 c -0.26057,-2.31421 -2.08681,-4.14071 -4.40128,-4.40127 l -3.80691,-0.42835 3.80691,-0.42836 c 2.31421,-0.26056 4.14071,-2.0868 4.40128,-4.40127 z"
       id="path1-47" />
    <path
       style="fill:#ffffff;stroke-width:0.264583"
       d="m 493.65318,131.09273 0.42836,3.80691 c 0.26055,2.31421 2.08705,4.14071 4.40126,4.40127 l 3.80691,0.42836 -3.80691,0.42835 c -2.31421,0.26056 -4.14071,2.0868 -4.40126,4.40127 l -0.42836,3.80691 -0.42836,-3.80691 c -0.26056,-2.31421 -2.0868,-4.14071 -4.40127,-4.40127 l -3.80691,-0.42835 3.80691,-0.42836 c 2.31422,-0.26056 4.14071,-2.0868 4.40127,-4.40127 z"
       id="path1-1" />
    <path
       style="fill:#ffffff;stroke-width:0.264583"
       d="m 573.09681,83.461193 0.42836,3.80691 c 0.26055,2.31421 2.08705,4.14071 4.40126,4.40126 l 3.80691,0.42836 -3.80691,0.42836 c -2.31421,0.26056 -4.14071,2.0868 -4.40126,4.40127 l -0.42836,3.806907 -0.42836,-3.806907 c -0.26056,-2.31421 -2.0868,-4.14071 -4.40127,-4.40127 l -3.80691,-0.42836 3.80691,-0.42836 c 2.31421,-0.26055 4.14071,-2.08679 4.40127,-4.40126 z"
       id="path1-12" />
    <path
       style="fill:#ffffff;stroke-width:0.264583"
       d="m 592.70097,275.0358 0.42836,3.80691 c 0.26055,2.31421 2.08705,4.14071 4.40126,4.40127 l 3.80691,0.42835 -3.80691,0.42836 c -2.31421,0.26056 -4.14071,2.0868 -4.40126,4.40127 l -0.42836,3.80691 -0.42836,-3.80691 c -0.26056,-2.31421 -2.0868,-4.14071 -4.40127,-4.40127 l -3.80691,-0.42836 3.80691,-0.42836 c 2.31421,-0.26055 4.14071,-2.08679 4.40127,-4.40126 z"
       id="path1-07" />
    <path
       style="fill:#ffffff;stroke-width:0.264583"
       d="m 541.51928,254.03003 0.42836,3.80691 c 0.26055,2.31421 2.08705,4.14071 4.40126,4.40127 l 3.80691,0.42836 -3.80691,0.42836 c -2.31421,0.26055 -4.14071,2.08679 -4.40126,4.40126 l -0.42836,3.80691 -0.42835,-3.80691 c -0.26057,-2.31421 -2.08681,-4.14071 -4.40128,-4.40127 l -3.80691,-0.42835 3.80691,-0.42836 c 2.31421,-0.26056 4.14071,-2.0868 4.40128,-4.40127 z"
       id="path1-54" />
    <path
       style="fill:#ffffff;stroke-width:0.264583"
       d="m 481.57093,67.619239 0.42836,3.80691 c 0.26055,2.31421 2.08705,4.14071 4.40126,4.40127 l 3.80691,0.42836 -3.80691,0.42835 c -2.31421,0.26056 -4.14071,2.0868 -4.40126,4.40127 l -0.42836,3.80691 -0.42835,-3.80691 c -0.26057,-2.31421 -2.08681,-4.14071 -4.40128,-4.40127 l -3.80691,-0.42835 3.80691,-0.42836 c 2.31421,-0.26056 4.14071,-2.0868 4.40128,-4.40127 z"
       id="path1-79" />
    <path
       style="fill:#ffffff;stroke-width:0.264583"
       d="m 436.28676,24.194526 0.42836,3.80691 c 0.26055,2.31421 2.08705,4.140706 4.40126,4.401265 l 3.80691,0.428359 -3.80691,0.428358 c -2.31421,0.260559 -4.14071,2.086797 -4.40126,4.401265 l -0.42836,3.806909 -0.42835,-3.806909 c -0.26057,-2.31421 -2.08681,-4.140706 -4.40128,-4.401265 l -3.80691,-0.428358 3.80691,-0.428359 c 2.31421,-0.260559 4.14071,-2.086798 4.40128,-4.401265 z"
       id="path1-3" />
    <path
       style="fill:#ffffff;stroke-width:0.264583"
       d="m 306.20991,73.301492 0.42836,3.80691 c 0.26055,2.31421 2.08705,4.14071 4.40126,4.40127 l 3.80691,0.42836 -3.80691,0.42836 c -2.31421,0.26055 -4.14071,2.08679 -4.40126,4.40126 l -0.42836,3.80691 -0.42836,-3.80691 c -0.26056,-2.31421 -2.0868,-4.14071 -4.40127,-4.40127 l -3.80691,-0.42835 3.80691,-0.42836 c 2.31421,-0.26056 4.14071,-2.0868 4.40127,-4.40127 z"
       id="path1-78" />
    <path
       style="fill:#ffffff;stroke-width:0.264583"
       d="m 324.14234,171.71308 0.42836,3.80691 c 0.26055,2.31421 2.08705,4.1407 4.40126,4.40126 l 3.80691,0.42836 -3.80691,0.42836 c -2.31421,0.26056 -4.14071,2.0868 -4.40126,4.40126 l -0.42836,3.80691 -0.42835,-3.80691 c -0.26057,-2.31421 -2.08681,-4.1407 -4.40128,-4.40126 l -3.80691,-0.42836 3.80691,-0.42836 c 2.31421,-0.26056 4.14071,-2.0868 4.40128,-4.40126 z"
       id="path1-03" />
    <path
       style="fill:#ffffff;stroke-width:0.264583"
       d="m 310.48836,273.65584 0.42836,3.80691 c 0.26055,2.31421 2.08705,4.14071 4.40126,4.40127 l 3.80691,0.42836 -3.80691,0.42836 c -2.31421,0.26055 -4.14071,2.08679 -4.40126,4.40126 l -0.42836,3.80691 L 310.06,287.122 c -0.26056,-2.31421 -2.0868,-4.14071 -4.40127,-4.40126 l -3.80691,-0.42836 3.80691,-0.42836 c 2.31421,-0.26056 4.14071,-2.0868 4.40127,-4.40127 z"
       id="path1-11" />
    <path
       style="fill:#ffffff;stroke-width:0.264583"
       d="m 86.634596,223.4897 0.42836,3.80691 c 0.26055,2.31421 2.08705,4.14071 4.40126,4.40127 l 3.80691,0.42836 -3.80691,0.42836 c -2.31421,0.26055 -4.14071,2.08679 -4.40126,4.40126 l -0.42836,3.80691 -0.42836,-3.80691 c -0.26056,-2.31421 -2.0868,-4.14071 -4.40127,-4.40127 l -3.80691,-0.42835 3.80691,-0.42836 c 2.31421,-0.26056 4.14071,-2.0868 4.40127,-4.40127 z"
       id="path1-43" />
    <path
       style="fill:#ffffff;stroke-width:0.264583"
       d="m 480.89715,188.51386 0.42835,3.80691 c 0.26055,2.31421 2.08705,4.14071 4.40126,4.40127 l 3.80691,0.42836 -3.80691,0.42835 c -2.31421,0.26056 -4.14071,2.0868 -4.40126,4.40127 l -0.42835,3.80691 -0.42836,-3.80691 c -0.26056,-2.31421 -2.08681,-4.14071 -4.40127,-4.40127 l -3.80691,-0.42835 3.80691,-0.42836 c 2.31421,-0.26056 4.14071,-2.0868 4.40127,-4.40127 z"
       id="path1-69" />
    <path
       style="fill:#ffffff;stroke-width:0.264583"
       d="m 513.84777,296.49944 -1.20685,-0.52989 c -0.39612,-0.17384 -0.37224,-0.74379 0.037,-0.88374 v 0 0 c -0.0793,-0.0309 -0.1534,-0.0689 -0.222,-0.11278 -0.32422,-0.20759 -0.26933,-0.69933 0.0879,-0.84244 l 1.35147,-0.54127 -1.29412,0.37841 c -0.40942,0.11964 -0.76876,-0.32147 -0.55376,-0.68987 0.004,-0.007 0.008,-0.0137 0.0122,-0.0204 -0.0412,0.0138 -0.0825,0.0255 -0.12376,0.035 -0.41107,0.0941 -0.73734,-0.35262 -0.53826,-0.72431 l 0.66339,-1.23869 -0.75477,1.13153 c -0.24834,0.37238 -0.82474,0.24574 -0.89403,-0.19661 l -0.002,-0.0103 c -0.008,0.0126 -0.0155,0.025 -0.0236,0.0372 -0.24244,0.36949 -0.81266,0.25794 -0.90322,-0.17466 l -0.28045,-1.33954 0.1501,1.36039 c 0.0489,0.44235 -0.46265,0.72252 -0.80896,0.44317 -0.0141,-0.0114 -0.028,-0.0232 -0.0418,-0.0353 v 0 c 0.0664,0.44592 -0.44647,0.74379 -0.80087,0.46513 l -1.04249,-0.81953 0.98322,0.93972 c 0.30884,0.29513 0.13198,0.83119 -0.29417,0.86151 -0.0395,0.003 -0.0795,0.004 -0.12006,0.003 v 0 0 c 0.004,0.004 0.008,0.007 0.0114,0.0102 0.32998,0.29691 0.11182,0.84889 -0.33176,0.86302 l -1.28877,0.0412 1.25927,0.0815 c 0.4713,0.0304 0.68013,0.62867 0.31393,0.92695 l -0.009,0.007 c 0.0414,10e-4 0.0822,0.004 0.12225,0.009 0.40833,0.0487 0.55925,0.56748 0.25274,0.84161 l -0.98926,0.88525 1.06815,-0.78454 c 0.33341,-0.24491 0.81061,0.0141 0.7715,0.42602 -0.004,0.0429 -0.0104,0.0862 -0.0191,0.12952 0.0435,-0.0349 0.0885,-0.0663 0.13474,-0.0944 0.3507,-0.21294 0.7914,0.0778 0.73308,0.48378 l -0.19181,1.33584 0.30528,-1.25228 c 0.10263,-0.42108 0.66586,-0.50766 0.88772,-0.13542 0.008,0.0136 0.0159,0.0273 0.0236,0.0413 0.0162,-0.0807 0.0395,-0.15779 0.0694,-0.23065 0.14777,-0.36125 0.65077,-0.39185 0.85657,-0.0602 l 0.73172,1.17887 -0.57379,-1.16103 c -0.19278,-0.39007 0.194,-0.81363 0.59986,-0.65694 l 0.009,0.004 c -0.0436,-0.0796 -0.0775,-0.16149 -0.10235,-0.24464 -0.11004,-0.36826 0.24422,-0.70757 0.60946,-0.58765 z"
       id="path15-0-1" />
    <path
       style="fill:#ffffff;stroke-width:0.264583"
       d="m 36.804019,193.57653 -1.20685,-0.52989 c -0.39612,-0.17384 -0.37224,-0.74379 0.037,-0.88374 v 0 0 c -0.0793,-0.0309 -0.1534,-0.0689 -0.222,-0.11278 -0.32422,-0.20759 -0.26933,-0.69933 0.0879,-0.84244 l 1.35147,-0.54127 -1.29412,0.37841 c -0.40942,0.11964 -0.76876,-0.32147 -0.55376,-0.68987 0.004,-0.007 0.008,-0.0137 0.0122,-0.0204 -0.0412,0.0138 -0.0825,0.0255 -0.12376,0.035 -0.41107,0.0941 -0.73734,-0.35262 -0.53826,-0.72431 l 0.66339,-1.23869 -0.75477,1.13153 c -0.24834,0.37238 -0.82474,0.24574 -0.89403,-0.19661 l -0.002,-0.0103 c -0.008,0.0126 -0.0155,0.025 -0.0236,0.0372 -0.24244,0.36949 -0.81266,0.25794 -0.90322,-0.17466 l -0.28045,-1.33954 0.1501,1.36039 c 0.0489,0.44235 -0.46265,0.72252 -0.80896,0.44317 -0.0141,-0.0114 -0.028,-0.0232 -0.0418,-0.0353 v 0 c 0.0664,0.44592 -0.44647,0.74379 -0.80087,0.46513 l -1.04249,-0.81953 0.98322,0.93972 c 0.30884,0.29513 0.13198,0.83119 -0.29417,0.86151 -0.0395,0.003 -0.0795,0.004 -0.12006,0.003 v 0 0 c 0.004,0.004 0.008,0.007 0.0114,0.0102 0.32998,0.29691 0.11182,0.84889 -0.33176,0.86302 l -1.28877,0.0412 1.25927,0.0815 c 0.4713,0.0304 0.68013,0.62867 0.31393,0.92695 l -0.009,0.007 c 0.0414,0.001 0.0822,0.004 0.12225,0.009 0.40833,0.0487 0.55925,0.56748 0.25274,0.84161 l -0.98926,0.88525 1.06815,-0.78454 c 0.33341,-0.24491 0.81061,0.0141 0.7715,0.42602 -0.004,0.0429 -0.0104,0.0862 -0.0191,0.12952 0.0435,-0.0349 0.0885,-0.0663 0.13474,-0.0944 0.3507,-0.21294 0.7914,0.0778 0.73308,0.48378 l -0.19181,1.33584 0.30528,-1.25228 c 0.10263,-0.42108 0.66586,-0.50766 0.88772,-0.13542 0.008,0.0136 0.0159,0.0273 0.0236,0.0413 0.0162,-0.0807 0.0395,-0.15779 0.0694,-0.23065 0.14777,-0.36125 0.65077,-0.39185 0.85657,-0.0602 l 0.73172,1.17887 -0.57379,-1.16103 c -0.19278,-0.39007 0.194,-0.81363 0.59986,-0.65694 l 0.009,0.004 c -0.0436,-0.0796 -0.0775,-0.16149 -0.10235,-0.24464 -0.11004,-0.36826 0.24422,-0.70757 0.60946,-0.58765 z"
       id="path15-0-52" />
  </g>
  <g
     id="layer2">
    <path
       style="fill:#ffffff;stroke-width:0.264583"
       d="m 200.51335,151.25756 -1.20685,-0.52989 c -0.39612,-0.17384 -0.37224,-0.74379 0.037,-0.88374 v 0 0 c -0.0793,-0.0309 -0.1534,-0.0689 -0.222,-0.11278 -0.32422,-0.20759 -0.26933,-0.69933 0.0879,-0.84244 l 1.35147,-0.54127 -1.29412,0.37841 c -0.40942,0.11964 -0.76876,-0.32147 -0.55376,-0.68987 0.004,-0.007 0.008,-0.0137 0.0122,-0.0204 -0.0412,0.0138 -0.0825,0.0255 -0.12376,0.035 -0.41107,0.0941 -0.73734,-0.35262 -0.53826,-0.72431 l 0.66339,-1.23869 -0.75477,1.13153 c -0.24834,0.37238 -0.82474,0.24574 -0.89403,-0.19661 l -0.002,-0.0103 c -0.008,0.0126 -0.0155,0.025 -0.0236,0.0372 -0.24244,0.36949 -0.81266,0.25794 -0.90322,-0.17466 l -0.28045,-1.33954 0.1501,1.36039 c 0.0489,0.44235 -0.46265,0.72252 -0.80896,0.44317 -0.0141,-0.0114 -0.028,-0.0232 -0.0418,-0.0353 v 0 c 0.0664,0.44592 -0.44647,0.74379 -0.80087,0.46513 l -1.04249,-0.81953 0.98322,0.93972 c 0.30884,0.29513 0.13198,0.83119 -0.29417,0.86151 -0.0395,0.003 -0.0795,0.004 -0.12006,0.003 v 0 0 c 0.004,0.004 0.008,0.007 0.0114,0.0102 0.32998,0.29691 0.11182,0.84889 -0.33176,0.86302 l -1.28877,0.0412 1.25927,0.0815 c 0.4713,0.0304 0.68013,0.62867 0.31393,0.92695 l -0.009,0.007 c 0.0414,0.001 0.0822,0.004 0.12225,0.009 0.40833,0.0487 0.55925,0.56748 0.25274,0.84161 l -0.98926,0.88525 1.06815,-0.78454 c 0.33341,-0.24491 0.81061,0.0141 0.7715,0.42602 -0.004,0.0429 -0.0104,0.0862 -0.0191,0.12952 0.0435,-0.0349 0.0885,-0.0663 0.13474,-0.0944 0.3507,-0.21294 0.7914,0.0778 0.73308,0.48378 l -0.19181,1.33584 0.30528,-1.25228 c 0.10263,-0.42108 0.66586,-0.50766 0.88772,-0.13542 0.008,0.0136 0.0159,0.0273 0.0236,0.0413 0.0162,-0.0807 0.0395,-0.15779 0.0694,-0.23065 0.14777,-0.36125 0.65077,-0.39185 0.85657,-0.0602 l 0.73172,1.17887 -0.57379,-1.16103 c -0.19278,-0.39007 0.194,-0.81363 0.59986,-0.65694 l 0.009,0.004 c -0.0436,-0.0796 -0.0775,-0.16149 -0.10235,-0.24464 -0.11004,-0.36826 0.24422,-0.70757 0.60946,-0.58765 z"
       id="path15" />
    <path
       style="fill:#ffffff;stroke-width:0.264583"
       d="m 94.303669,120.81493 -1.20685,-0.52989 c -0.39612,-0.17384 -0.37224,-0.74379 0.037,-0.88374 v 0 0 c -0.0793,-0.0309 -0.1534,-0.0689 -0.222,-0.11278 -0.32422,-0.20759 -0.26933,-0.69933 0.0879,-0.84244 l 1.35147,-0.54127 -1.29412,0.37841 c -0.40942,0.11964 -0.76876,-0.32147 -0.55376,-0.68987 0.004,-0.007 0.008,-0.0137 0.0122,-0.0204 -0.0412,0.0138 -0.0825,0.0255 -0.12376,0.035 -0.41107,0.0941 -0.73734,-0.35262 -0.53826,-0.72431 l 0.66339,-1.23869 -0.75477,1.13153 c -0.24834,0.37238 -0.82474,0.24574 -0.89403,-0.19661 l -0.002,-0.0103 c -0.008,0.0126 -0.0155,0.025 -0.0236,0.0372 -0.24244,0.36949 -0.81266,0.25794 -0.90322,-0.17466 l -0.28045,-1.33954 0.1501,1.36039 c 0.0489,0.44235 -0.46265,0.72252 -0.80896,0.44317 -0.0141,-0.0114 -0.028,-0.0232 -0.0418,-0.0353 v 0 c 0.0664,0.44592 -0.44647,0.74379 -0.80087,0.46513 l -1.04249,-0.81953 0.98322,0.93972 c 0.30884,0.29513 0.13198,0.83119 -0.29417,0.86151 -0.0395,0.003 -0.0795,0.004 -0.12006,0.003 v 0 0 c 0.004,0.004 0.008,0.007 0.0114,0.0102 0.32998,0.29691 0.11182,0.84889 -0.33176,0.86302 l -1.28877,0.0412 1.25927,0.0815 c 0.4713,0.0304 0.68013,0.62867 0.31393,0.92695 l -0.009,0.007 c 0.0414,10e-4 0.0822,0.004 0.12225,0.009 0.40833,0.0487 0.55925,0.56748 0.25274,0.84161 l -0.98926,0.88525 1.06815,-0.78454 c 0.33341,-0.24491 0.81061,0.0141 0.7715,0.42602 -0.004,0.0429 -0.0104,0.0862 -0.0191,0.12952 0.0435,-0.0349 0.0885,-0.0663 0.13474,-0.0944 0.3507,-0.21294 0.7914,0.0778 0.73308,0.48378 l -0.19181,1.33584 0.30528,-1.25228 c 0.10263,-0.42108 0.66586,-0.50766 0.88772,-0.13542 0.008,0.0136 0.0159,0.0273 0.0236,0.0413 0.0162,-0.0807 0.0395,-0.15779 0.0694,-0.23065 0.14777,-0.36125 0.65077,-0.39185 0.85657,-0.0602 l 0.73172,1.17887 -0.57379,-1.16103 c -0.19278,-0.39007 0.194,-0.81363 0.59986,-0.65694 l 0.009,0.004 c -0.0436,-0.0796 -0.0775,-0.16149 -0.10235,-0.24464 -0.11004,-0.36826 0.24422,-0.70757 0.60946,-0.58765 z"
       id="path15-0" />
    <path
       style="fill:#ffffff;stroke-width:0.264583"
       d="m 198.72902,76.36611 -1.20685,-0.52989 c -0.39612,-0.17384 -0.37224,-0.74379 0.037,-0.88374 v 0 0 c -0.0793,-0.0309 -0.1534,-0.0689 -0.222,-0.11278 -0.32422,-0.20759 -0.26933,-0.69933 0.0879,-0.84244 l 1.35147,-0.54127 -1.29412,0.37841 c -0.40942,0.11964 -0.76876,-0.32147 -0.55376,-0.68987 0.004,-0.007 0.008,-0.0137 0.0122,-0.0204 -0.0412,0.0138 -0.0825,0.0255 -0.12376,0.035 -0.41107,0.0941 -0.73734,-0.35262 -0.53826,-0.72431 l 0.66339,-1.23869 -0.75477,1.13153 c -0.24834,0.37238 -0.82474,0.24574 -0.89403,-0.19661 l -0.002,-0.0103 c -0.008,0.0126 -0.0155,0.025 -0.0236,0.0372 -0.24244,0.36949 -0.81266,0.25794 -0.90322,-0.17466 l -0.28045,-1.33954 0.1501,1.36039 c 0.0489,0.44235 -0.46265,0.72252 -0.80896,0.44317 -0.0141,-0.0114 -0.028,-0.0232 -0.0418,-0.0353 v 0 c 0.0664,0.44592 -0.44647,0.74379 -0.80087,0.46513 l -1.04249,-0.81953 0.98322,0.93972 c 0.30884,0.29513 0.13198,0.83119 -0.29417,0.86151 -0.0395,0.003 -0.0795,0.004 -0.12006,0.003 v 0 0 c 0.004,0.004 0.008,0.007 0.0114,0.0102 0.32998,0.29691 0.11182,0.84889 -0.33176,0.86302 l -1.28877,0.0412 1.25927,0.0815 c 0.4713,0.0304 0.68013,0.62867 0.31393,0.92695 l -0.009,0.007 c 0.0414,0.001 0.0822,0.004 0.12225,0.009 0.40833,0.0487 0.55925,0.56748 0.25274,0.84161 l -0.98926,0.88525 1.06815,-0.78454 c 0.33341,-0.24491 0.81061,0.0141 0.7715,0.42602 -0.004,0.0429 -0.0104,0.0862 -0.0191,0.12952 0.0435,-0.0349 0.0885,-0.0663 0.13474,-0.0944 0.3507,-0.21294 0.7914,0.0778 0.73308,0.48378 l -0.19181,1.33584 0.30528,-1.25228 c 0.10263,-0.42108 0.66586,-0.50766 0.88772,-0.13542 0.008,0.0136 0.0159,0.0273 0.0236,0.0413 0.0162,-0.0807 0.0395,-0.15779 0.0694,-0.23065 0.14777,-0.36125 0.65077,-0.39185 0.85657,-0.0602 l 0.73172,1.17887 -0.57379,-1.16103 c -0.19278,-0.39007 0.194,-0.81363 0.59986,-0.65694 l 0.009,0.004 c -0.0436,-0.0796 -0.0775,-0.16149 -0.10235,-0.24464 -0.11004,-0.36826 0.24422,-0.70757 0.60946,-0.58765 z"
       id="path15-0-5" />
    <path
       style="fill:#ffffff;stroke-width:0.264583"
       d="m 53.208186,265.80778 -1.20685,-0.52989 c -0.39612,-0.17384 -0.37224,-0.74379 0.037,-0.88374 v 0 0 c -0.0793,-0.0309 -0.1534,-0.0689 -0.222,-0.11278 -0.32422,-0.20759 -0.26933,-0.69933 0.0879,-0.84244 l 1.35147,-0.54127 -1.29412,0.37841 c -0.40942,0.11964 -0.76876,-0.32147 -0.55376,-0.68987 0.004,-0.007 0.008,-0.0137 0.0122,-0.0204 -0.0412,0.0138 -0.0825,0.0255 -0.12376,0.035 -0.41107,0.0941 -0.73734,-0.35262 -0.53826,-0.72431 l 0.66339,-1.23869 -0.75477,1.13153 c -0.24834,0.37238 -0.82474,0.24574 -0.89403,-0.19661 l -0.002,-0.0103 c -0.008,0.0126 -0.0155,0.025 -0.0236,0.0372 -0.24244,0.36949 -0.81266,0.25794 -0.90322,-0.17466 l -0.28045,-1.33954 0.1501,1.36039 c 0.0489,0.44235 -0.46265,0.72252 -0.80896,0.44317 -0.0141,-0.0114 -0.028,-0.0232 -0.0418,-0.0353 v 0 c 0.0664,0.44592 -0.44647,0.74379 -0.80087,0.46513 l -1.04249,-0.81953 0.98322,0.93972 c 0.30884,0.29513 0.13198,0.83119 -0.29417,0.86151 -0.0395,0.003 -0.0795,0.004 -0.12006,0.003 v 0 0 c 0.004,0.004 0.008,0.007 0.0114,0.0102 0.32998,0.29691 0.11182,0.84889 -0.33176,0.86302 l -1.28877,0.0412 1.25927,0.0815 c 0.4713,0.0304 0.68013,0.62867 0.31393,0.92695 l -0.009,0.007 c 0.0414,10e-4 0.0822,0.004 0.12225,0.009 0.40833,0.0487 0.55925,0.56748 0.25274,0.84161 l -0.98926,0.88525 1.06815,-0.78454 c 0.33341,-0.24491 0.81061,0.0141 0.7715,0.42602 -0.004,0.0429 -0.0104,0.0862 -0.0191,0.12952 0.0435,-0.0349 0.0885,-0.0663 0.13474,-0.0944 0.3507,-0.21294 0.7914,0.0778 0.73308,0.48378 l -0.19181,1.33584 0.30528,-1.25228 c 0.10263,-0.42108 0.66586,-0.50766 0.88772,-0.13542 0.008,0.0136 0.0159,0.0273 0.0236,0.0413 0.0162,-0.0807 0.0395,-0.15779 0.0694,-0.23065 0.14777,-0.36125 0.65077,-0.39185 0.85657,-0.0602 l 0.73172,1.17887 -0.57379,-1.16103 c -0.19278,-0.39007 0.194,-0.81363 0.59986,-0.65694 l 0.009,0.004 c -0.0436,-0.0796 -0.0775,-0.16149 -0.10235,-0.24464 -0.11004,-0.36826 0.24422,-0.70757 0.60946,-0.58765 z"
       id="path15-0-9" />
    <path
       style="fill:#ffffff;stroke-width:0.264583"
       d="m 216.19152,258.13486 -1.20685,-0.52989 c -0.39612,-0.17384 -0.37224,-0.74379 0.037,-0.88374 v 0 0 c -0.0793,-0.0309 -0.1534,-0.0689 -0.222,-0.11278 -0.32422,-0.20759 -0.26933,-0.69933 0.0879,-0.84244 l 1.35147,-0.54127 -1.29412,0.37841 c -0.40942,0.11964 -0.76876,-0.32147 -0.55376,-0.68987 0.004,-0.007 0.008,-0.0137 0.0122,-0.0204 -0.0412,0.0138 -0.0825,0.0255 -0.12376,0.035 -0.41107,0.0941 -0.73734,-0.35262 -0.53826,-0.72431 l 0.66339,-1.23869 -0.75477,1.13153 c -0.24834,0.37238 -0.82474,0.24574 -0.89403,-0.19661 l -0.002,-0.0103 c -0.008,0.0126 -0.0155,0.025 -0.0236,0.0372 -0.24244,0.36949 -0.81266,0.25794 -0.90322,-0.17466 l -0.28045,-1.33954 0.1501,1.36039 c 0.0489,0.44235 -0.46265,0.72252 -0.80896,0.44317 -0.0141,-0.0114 -0.028,-0.0232 -0.0418,-0.0353 v 0 c 0.0664,0.44592 -0.44647,0.74379 -0.80087,0.46513 l -1.04249,-0.81953 0.98322,0.93972 c 0.30884,0.29513 0.13198,0.83119 -0.29417,0.86151 -0.0395,0.003 -0.0795,0.004 -0.12006,0.003 v 0 0 c 0.004,0.004 0.008,0.007 0.0114,0.0102 0.32998,0.29691 0.11182,0.84889 -0.33176,0.86302 l -1.28877,0.0412 1.25927,0.0815 c 0.4713,0.0304 0.68013,0.62867 0.31393,0.92695 l -0.009,0.007 c 0.0414,0.001 0.0822,0.004 0.12225,0.009 0.40833,0.0487 0.55925,0.56748 0.25274,0.84161 l -0.98926,0.88525 1.06815,-0.78454 c 0.33341,-0.24491 0.81061,0.0141 0.7715,0.42602 -0.004,0.0429 -0.0104,0.0862 -0.0191,0.12952 0.0435,-0.0349 0.0885,-0.0663 0.13474,-0.0944 0.3507,-0.21294 0.7914,0.0778 0.73308,0.48378 l -0.19181,1.33584 0.30528,-1.25228 c 0.10263,-0.42108 0.66586,-0.50766 0.88772,-0.13542 0.008,0.0136 0.0159,0.0273 0.0236,0.0413 0.0162,-0.0807 0.0395,-0.15779 0.0694,-0.23065 0.14777,-0.36125 0.65077,-0.39185 0.85657,-0.0602 l 0.73172,1.17887 -0.57379,-1.16103 c -0.19278,-0.39007 0.194,-0.81363 0.59986,-0.65694 l 0.009,0.004 c -0.0436,-0.0796 -0.0775,-0.16149 -0.10235,-0.24464 -0.11004,-0.36826 0.24422,-0.70757 0.60946,-0.58765 z"
       id="path15-0-8" />
    <path
       style="fill:#ffffff;stroke-width:0.264583"
       d="M 163.27485,322.69319 162.068,322.1633 c -0.39612,-0.17384 -0.37224,-0.74379 0.037,-0.88374 v 0 0 c -0.0793,-0.0309 -0.1534,-0.0689 -0.222,-0.11278 -0.32422,-0.20759 -0.26933,-0.69933 0.0879,-0.84244 l 1.35147,-0.54127 -1.29412,0.37841 c -0.40942,0.11964 -0.76876,-0.32147 -0.55376,-0.68987 0.004,-0.007 0.008,-0.0137 0.0122,-0.0204 -0.0412,0.0138 -0.0825,0.0255 -0.12376,0.035 -0.41107,0.0941 -0.73734,-0.35262 -0.53826,-0.72431 l 0.66339,-1.23869 -0.75477,1.13153 c -0.24834,0.37238 -0.82474,0.24574 -0.89403,-0.19661 l -0.002,-0.0103 c -0.008,0.0126 -0.0155,0.025 -0.0236,0.0372 -0.24244,0.36949 -0.81266,0.25794 -0.90322,-0.17466 l -0.28045,-1.33954 0.1501,1.36039 c 0.0489,0.44235 -0.46265,0.72252 -0.80896,0.44317 -0.0141,-0.0114 -0.028,-0.0232 -0.0418,-0.0353 v 0 c 0.0664,0.44592 -0.44647,0.74379 -0.80087,0.46513 l -1.04249,-0.81953 0.98322,0.93972 c 0.30884,0.29513 0.13198,0.83119 -0.29417,0.86151 -0.0395,0.003 -0.0795,0.004 -0.12006,0.003 v 0 0 c 0.004,0.004 0.008,0.007 0.0114,0.0102 0.32998,0.29691 0.11182,0.84889 -0.33176,0.86302 l -1.28877,0.0412 1.25927,0.0815 c 0.4713,0.0304 0.68013,0.62867 0.31393,0.92695 l -0.009,0.007 c 0.0414,0.001 0.0822,0.004 0.12225,0.009 0.40833,0.0487 0.55925,0.56748 0.25274,0.84161 l -0.98926,0.88525 1.06815,-0.78454 c 0.33341,-0.24491 0.81061,0.0141 0.7715,0.42602 -0.004,0.0429 -0.0104,0.0862 -0.0191,0.12952 0.0435,-0.0349 0.0885,-0.0663 0.13474,-0.0944 0.3507,-0.21294 0.7914,0.0778 0.73308,0.48378 l -0.19181,1.33584 0.30528,-1.25228 c 0.10263,-0.42108 0.66586,-0.50766 0.88772,-0.13542 0.008,0.0136 0.0159,0.0273 0.0236,0.0413 0.0162,-0.0807 0.0395,-0.15779 0.0694,-0.23065 0.14777,-0.36125 0.65077,-0.39185 0.85657,-0.0602 l 0.73172,1.17887 -0.57379,-1.16103 c -0.19278,-0.39007 0.194,-0.81363 0.59986,-0.65694 l 0.009,0.004 c -0.0436,-0.0796 -0.0775,-0.16149 -0.10235,-0.24464 -0.11004,-0.36826 0.24422,-0.70757 0.60946,-0.58765 z"
       id="path15-0-2" />
    <path
       style="fill:#ffffff;stroke-width:0.264583"
       d="m 358.53735,252.57861 -1.20685,-0.52989 c -0.39612,-0.17384 -0.37224,-0.74379 0.037,-0.88374 v 0 0 c -0.0793,-0.0309 -0.1534,-0.0689 -0.222,-0.11278 -0.32422,-0.20759 -0.26933,-0.69933 0.0879,-0.84244 l 1.35147,-0.54127 -1.29412,0.37841 c -0.40942,0.11964 -0.76876,-0.32147 -0.55376,-0.68987 0.004,-0.007 0.008,-0.0137 0.0122,-0.0204 -0.0412,0.0138 -0.0825,0.0255 -0.12376,0.035 -0.41107,0.0941 -0.73734,-0.35262 -0.53826,-0.72431 l 0.66339,-1.23869 -0.75477,1.13153 c -0.24834,0.37238 -0.82474,0.24574 -0.89403,-0.19661 l -0.002,-0.0103 c -0.008,0.0126 -0.0155,0.025 -0.0236,0.0372 -0.24244,0.36949 -0.81266,0.25794 -0.90322,-0.17466 l -0.28045,-1.33954 0.1501,1.36039 c 0.0489,0.44235 -0.46265,0.72252 -0.80896,0.44317 -0.0141,-0.0114 -0.028,-0.0232 -0.0418,-0.0353 v 0 c 0.0664,0.44592 -0.44647,0.74379 -0.80087,0.46513 l -1.04249,-0.81953 0.98322,0.93972 c 0.30884,0.29513 0.13198,0.83119 -0.29417,0.86151 -0.0395,0.003 -0.0795,0.004 -0.12006,0.003 v 0 0 c 0.004,0.004 0.008,0.007 0.0114,0.0102 0.32998,0.29691 0.11182,0.84889 -0.33176,0.86302 l -1.28877,0.0412 1.25927,0.0815 c 0.4713,0.0304 0.68013,0.62867 0.31393,0.92695 l -0.009,0.007 c 0.0414,0.001 0.0822,0.004 0.12225,0.009 0.40833,0.0487 0.55925,0.56748 0.25274,0.84161 l -0.98926,0.88525 1.06815,-0.78454 c 0.33341,-0.24491 0.81061,0.0141 0.7715,0.42602 -0.004,0.0429 -0.0104,0.0862 -0.0191,0.12952 0.0435,-0.0349 0.0885,-0.0663 0.13474,-0.0944 0.3507,-0.21294 0.7914,0.0778 0.73308,0.48378 l -0.19181,1.33584 0.30528,-1.25228 c 0.10263,-0.42108 0.66586,-0.50766 0.88772,-0.13542 0.008,0.0136 0.0159,0.0273 0.0236,0.0413 0.0162,-0.0807 0.0395,-0.15779 0.0694,-0.23065 0.14777,-0.36125 0.65077,-0.39185 0.85657,-0.0602 l 0.73172,1.17887 -0.57379,-1.16103 c -0.19278,-0.39007 0.194,-0.81363 0.59986,-0.65694 l 0.009,0.004 c -0.0436,-0.0796 -0.0775,-0.16149 -0.10235,-0.24464 -0.11004,-0.36826 0.24422,-0.70757 0.60946,-0.58765 z"
       id="path15-0-6" />
    <path
       style="fill:#ffffff;stroke-width:0.264583"
       d="m 443.4686,334.86403 -1.20685,-0.52989 c -0.39612,-0.17384 -0.37224,-0.74379 0.037,-0.88374 v 0 0 c -0.0793,-0.0309 -0.1534,-0.0689 -0.222,-0.11278 -0.32422,-0.20759 -0.26933,-0.69933 0.0879,-0.84244 l 1.35147,-0.54127 -1.29412,0.37841 c -0.40942,0.11964 -0.76876,-0.32147 -0.55376,-0.68987 0.004,-0.007 0.008,-0.0137 0.0122,-0.0204 -0.0412,0.0138 -0.0825,0.0255 -0.12376,0.035 -0.41107,0.0941 -0.73734,-0.35262 -0.53826,-0.72431 l 0.66339,-1.23869 -0.75477,1.13153 c -0.24834,0.37238 -0.82474,0.24574 -0.89403,-0.19661 l -0.002,-0.0103 c -0.008,0.0126 -0.0155,0.025 -0.0236,0.0372 -0.24244,0.36949 -0.81266,0.25794 -0.90322,-0.17466 l -0.28045,-1.33954 0.1501,1.36039 c 0.0489,0.44235 -0.46265,0.72252 -0.80896,0.44317 -0.0141,-0.0114 -0.028,-0.0232 -0.0418,-0.0353 v 0 c 0.0664,0.44592 -0.44647,0.74379 -0.80087,0.46513 l -1.04249,-0.81953 0.98322,0.93972 c 0.30884,0.29513 0.13198,0.83119 -0.29417,0.86151 -0.0395,0.003 -0.0795,0.004 -0.12006,0.003 v 0 0 c 0.004,0.004 0.008,0.007 0.0114,0.0102 0.32998,0.29691 0.11182,0.84889 -0.33176,0.86302 l -1.28877,0.0412 1.25927,0.0815 c 0.4713,0.0304 0.68013,0.62867 0.31393,0.92695 l -0.009,0.007 c 0.0414,0.001 0.0822,0.004 0.12225,0.009 0.40833,0.0487 0.55925,0.56748 0.25274,0.84161 l -0.98926,0.88525 1.06815,-0.78454 c 0.33341,-0.24491 0.81061,0.0141 0.7715,0.42602 -0.004,0.0429 -0.0104,0.0862 -0.0191,0.12952 0.0435,-0.0349 0.0885,-0.0663 0.13474,-0.0944 0.3507,-0.21294 0.7914,0.0778 0.73308,0.48378 l -0.19181,1.33584 0.30528,-1.25228 c 0.10263,-0.42108 0.66586,-0.50766 0.88772,-0.13542 0.008,0.0136 0.0159,0.0273 0.0236,0.0413 0.0162,-0.0807 0.0395,-0.15779 0.0694,-0.23065 0.14777,-0.36125 0.65077,-0.39185 0.85657,-0.0602 l 0.73172,1.17887 -0.57379,-1.16103 c -0.19278,-0.39007 0.194,-0.81363 0.59986,-0.65694 l 0.009,0.004 c -0.0436,-0.0796 -0.0775,-0.16149 -0.10235,-0.24464 -0.11004,-0.36826 0.24422,-0.70757 0.60946,-0.58765 z"
       id="path15-0-61" />
    <path
       style="fill:#ffffff;stroke-width:0.264583"
       d="m 440.55819,254.69528 -1.20685,-0.52989 c -0.39612,-0.17384 -0.37224,-0.74379 0.037,-0.88374 v 0 0 c -0.0793,-0.0309 -0.1534,-0.0689 -0.222,-0.11278 -0.32422,-0.20759 -0.26933,-0.69933 0.0879,-0.84244 l 1.35147,-0.54127 -1.29412,0.37841 c -0.40942,0.11964 -0.76876,-0.32147 -0.55376,-0.68987 0.004,-0.007 0.008,-0.0137 0.0122,-0.0204 -0.0412,0.0138 -0.0825,0.0255 -0.12376,0.035 -0.41107,0.0941 -0.73734,-0.35262 -0.53826,-0.72431 l 0.66339,-1.23869 -0.75477,1.13153 c -0.24834,0.37238 -0.82474,0.24574 -0.89403,-0.19661 l -0.002,-0.0103 c -0.008,0.0126 -0.0155,0.025 -0.0236,0.0372 -0.24244,0.36949 -0.81266,0.25794 -0.90322,-0.17466 l -0.28045,-1.33954 0.1501,1.36039 c 0.0489,0.44235 -0.46265,0.72252 -0.80896,0.44317 -0.0141,-0.0114 -0.028,-0.0232 -0.0418,-0.0353 v 0 c 0.0664,0.44592 -0.44647,0.74379 -0.80087,0.46513 l -1.04249,-0.81953 0.98322,0.93972 c 0.30884,0.29513 0.13198,0.83119 -0.29417,0.86151 -0.0395,0.003 -0.0795,0.004 -0.12006,0.003 v 0 0 c 0.004,0.004 0.008,0.007 0.0114,0.0102 0.32998,0.29691 0.11182,0.84889 -0.33176,0.86302 l -1.28877,0.0412 1.25927,0.0815 c 0.4713,0.0304 0.68013,0.62867 0.31393,0.92695 l -0.009,0.007 c 0.0414,0.001 0.0822,0.004 0.12225,0.009 0.40833,0.0487 0.55925,0.56748 0.25274,0.84161 l -0.98926,0.88525 1.06815,-0.78454 c 0.33341,-0.24491 0.81061,0.0141 0.7715,0.42602 -0.004,0.0429 -0.0104,0.0862 -0.0191,0.12952 0.0435,-0.0349 0.0885,-0.0663 0.13474,-0.0944 0.3507,-0.21294 0.7914,0.0778 0.73308,0.48378 l -0.19181,1.33584 0.30528,-1.25228 c 0.10263,-0.42108 0.66586,-0.50766 0.88772,-0.13542 0.008,0.0136 0.0159,0.0273 0.0236,0.0413 0.0162,-0.0807 0.0395,-0.15779 0.0694,-0.23065 0.14777,-0.36125 0.65077,-0.39185 0.85657,-0.0602 l 0.73172,1.17887 -0.57379,-1.16103 c -0.19278,-0.39007 0.194,-0.81363 0.59986,-0.65694 l 0.009,0.004 c -0.0436,-0.0796 -0.0775,-0.16149 -0.10235,-0.24464 -0.11004,-0.36826 0.24422,-0.70757 0.60946,-0.58765 z"
       id="path15-0-20" />
    <path
       style="fill:#ffffff;stroke-width:0.264583"
       d="M 522.04985,230.61819 520.843,230.0883 c -0.39612,-0.17384 -0.37224,-0.74379 0.037,-0.88374 v 0 0 c -0.0793,-0.0309 -0.1534,-0.0689 -0.222,-0.11278 -0.32422,-0.20759 -0.26933,-0.69933 0.0879,-0.84244 l 1.35147,-0.54127 -1.29412,0.37841 c -0.40942,0.11964 -0.76876,-0.32147 -0.55376,-0.68987 0.004,-0.007 0.008,-0.0137 0.0122,-0.0204 -0.0412,0.0138 -0.0825,0.0255 -0.12376,0.035 -0.41107,0.0941 -0.73734,-0.35262 -0.53826,-0.72431 l 0.66339,-1.23869 -0.75477,1.13153 c -0.24834,0.37238 -0.82474,0.24574 -0.89403,-0.19661 l -0.002,-0.0103 c -0.008,0.0126 -0.0155,0.025 -0.0236,0.0372 -0.24244,0.36949 -0.81266,0.25794 -0.90322,-0.17466 l -0.28045,-1.33954 0.1501,1.36039 c 0.0489,0.44235 -0.46265,0.72252 -0.80896,0.44317 -0.0141,-0.0114 -0.028,-0.0232 -0.0418,-0.0353 v 0 c 0.0664,0.44592 -0.44647,0.74379 -0.80087,0.46513 l -1.04249,-0.81953 0.98322,0.93972 c 0.30884,0.29513 0.13198,0.83119 -0.29417,0.86151 -0.0395,0.003 -0.0795,0.004 -0.12006,0.003 v 0 0 c 0.004,0.004 0.008,0.007 0.0114,0.0102 0.32998,0.29691 0.11182,0.84889 -0.33176,0.86302 l -1.28877,0.0412 1.25927,0.0815 c 0.4713,0.0304 0.68013,0.62867 0.31393,0.92695 l -0.009,0.007 c 0.0414,0.001 0.0822,0.004 0.12225,0.009 0.40833,0.0487 0.55925,0.56748 0.25274,0.84161 l -0.98926,0.88525 1.06815,-0.78454 c 0.33341,-0.24491 0.81061,0.0141 0.7715,0.42602 -0.004,0.0429 -0.0104,0.0862 -0.0191,0.12952 0.0435,-0.0349 0.0885,-0.0663 0.13474,-0.0944 0.3507,-0.21294 0.7914,0.0778 0.73308,0.48378 l -0.19181,1.33584 0.30528,-1.25228 c 0.10263,-0.42108 0.66586,-0.50766 0.88772,-0.13542 0.008,0.0136 0.0159,0.0273 0.0236,0.0413 0.0162,-0.0807 0.0395,-0.15779 0.0694,-0.23065 0.14777,-0.36125 0.65077,-0.39185 0.85657,-0.0602 l 0.73172,1.17887 -0.57379,-1.16103 c -0.19278,-0.39007 0.194,-0.81363 0.59986,-0.65694 l 0.009,0.004 c -0.0436,-0.0796 -0.0775,-0.16149 -0.10235,-0.24464 -0.11004,-0.36826 0.24422,-0.70757 0.60946,-0.58765 z"
       id="path15-0-203" />
    <path
       style="fill:#ffffff;stroke-width:0.264583"
       d="m 438.44152,159.70986 -1.20685,-0.52989 c -0.39612,-0.17384 -0.37224,-0.74379 0.037,-0.88374 v 0 0 c -0.0793,-0.0309 -0.1534,-0.0689 -0.222,-0.11278 -0.32422,-0.20759 -0.26933,-0.69933 0.0879,-0.84244 l 1.35147,-0.54127 -1.29412,0.37841 c -0.40942,0.11964 -0.76876,-0.32147 -0.55376,-0.68987 0.004,-0.007 0.008,-0.0137 0.0122,-0.0204 -0.0412,0.0138 -0.0825,0.0255 -0.12376,0.035 -0.41107,0.0941 -0.73734,-0.35262 -0.53826,-0.72431 l 0.66339,-1.23869 -0.75477,1.13153 c -0.24834,0.37238 -0.82474,0.24574 -0.89403,-0.19661 l -0.002,-0.0103 c -0.008,0.0126 -0.0155,0.025 -0.0236,0.0372 -0.24244,0.36949 -0.81266,0.25794 -0.90322,-0.17466 l -0.28045,-1.33954 0.1501,1.36039 c 0.0489,0.44235 -0.46265,0.72252 -0.80896,0.44317 -0.0141,-0.0114 -0.028,-0.0232 -0.0418,-0.0353 v 0 c 0.0664,0.44592 -0.44647,0.74379 -0.80087,0.46513 l -1.04249,-0.81953 0.98322,0.93972 c 0.30884,0.29513 0.13198,0.83119 -0.29417,0.86151 -0.0395,0.003 -0.0795,0.004 -0.12006,0.003 v 0 0 c 0.004,0.004 0.008,0.007 0.0114,0.0102 0.32998,0.29691 0.11182,0.84889 -0.33176,0.86302 l -1.28877,0.0412 1.25927,0.0815 c 0.4713,0.0304 0.68013,0.62867 0.31393,0.92695 l -0.009,0.007 c 0.0414,0.001 0.0822,0.004 0.12225,0.009 0.40833,0.0487 0.55925,0.56748 0.25274,0.84161 l -0.98926,0.88525 1.06815,-0.78454 c 0.33341,-0.24491 0.81061,0.0141 0.7715,0.42602 -0.004,0.0429 -0.0104,0.0862 -0.0191,0.12952 0.0435,-0.0349 0.0885,-0.0663 0.13474,-0.0944 0.3507,-0.21294 0.7914,0.0778 0.73308,0.48378 l -0.19181,1.33584 0.30528,-1.25228 c 0.10263,-0.42108 0.66586,-0.50766 0.88772,-0.13542 0.008,0.0136 0.0159,0.0273 0.0236,0.0413 0.0162,-0.0807 0.0395,-0.15779 0.0694,-0.23065 0.14777,-0.36125 0.65077,-0.39185 0.85657,-0.0602 l 0.73172,1.17887 -0.57379,-1.16103 c -0.19278,-0.39007 0.194,-0.81363 0.59986,-0.65694 l 0.009,0.004 c -0.0436,-0.0796 -0.0775,-0.16149 -0.10235,-0.24464 -0.11004,-0.36826 0.24422,-0.70757 0.60946,-0.58765 z"
       id="path15-0-68" />
    <path
       style="fill:#ffffff;stroke-width:0.264583"
       d="m 415.42277,74.249443 -1.20685,-0.52989 c -0.39612,-0.17384 -0.37224,-0.74379 0.037,-0.88374 v 0 0 c -0.0793,-0.0309 -0.1534,-0.0689 -0.222,-0.11278 -0.32422,-0.20759 -0.26933,-0.69933 0.0879,-0.84244 l 1.35147,-0.54127 -1.29412,0.37841 c -0.40942,0.11964 -0.76876,-0.32147 -0.55376,-0.68987 0.004,-0.007 0.008,-0.0137 0.0122,-0.0204 -0.0412,0.0138 -0.0825,0.0255 -0.12376,0.035 -0.41107,0.0941 -0.73734,-0.35262 -0.53826,-0.72431 l 0.66339,-1.23869 -0.75477,1.13153 c -0.24834,0.37238 -0.82474,0.24574 -0.89403,-0.19661 l -0.002,-0.0103 c -0.008,0.0126 -0.0155,0.025 -0.0236,0.0372 -0.24244,0.36949 -0.81266,0.25794 -0.90322,-0.17466 l -0.28045,-1.33954 0.1501,1.36039 c 0.0489,0.44235 -0.46265,0.72252 -0.80896,0.44317 -0.0141,-0.0114 -0.028,-0.0232 -0.0418,-0.0353 v 0 c 0.0664,0.44592 -0.44647,0.74379 -0.80087,0.46513 l -1.04249,-0.81953 0.98322,0.93972 c 0.30884,0.29513 0.13198,0.83119 -0.29417,0.86151 -0.0395,0.003 -0.0795,0.004 -0.12006,0.003 v 0 0 c 0.004,0.004 0.008,0.007 0.0114,0.0102 0.32998,0.29691 0.11182,0.84889 -0.33176,0.86302 l -1.28877,0.0412 1.25927,0.0815 c 0.4713,0.0304 0.68013,0.62867 0.31393,0.92695 l -0.009,0.007 c 0.0414,0.001 0.0822,0.004 0.12225,0.009 0.40833,0.0487 0.55925,0.56748 0.25274,0.84161 l -0.98926,0.88525 1.06815,-0.78454 c 0.33341,-0.24491 0.81061,0.0141 0.7715,0.42602 -0.004,0.0429 -0.0104,0.0862 -0.0191,0.12952 0.0435,-0.0349 0.0885,-0.0663 0.13474,-0.0944 0.3507,-0.21294 0.7914,0.0778 0.73308,0.48378 l -0.19181,1.33584 0.30528,-1.25228 c 0.10263,-0.42108 0.66586,-0.50766 0.88772,-0.13542 0.008,0.0136 0.0159,0.0273 0.0236,0.0413 0.0162,-0.0807 0.0395,-0.15779 0.0694,-0.23065 0.14777,-0.36125 0.65077,-0.39185 0.85657,-0.0602 l 0.73172,1.17887 -0.57379,-1.16103 c -0.19278,-0.39007 0.194,-0.81363 0.59986,-0.65694 l 0.009,0.004 c -0.0436,-0.0796 -0.0775,-0.16149 -0.10235,-0.24464 -0.11004,-0.36826 0.24422,-0.70757 0.60946,-0.58765 z"
       id="path15-0-99" />
    <path
       style="fill:#ffffff;stroke-width:0.264583"
       d="m 559.3561,37.47236 -1.20685,-0.52989 c -0.39612,-0.17384 -0.37224,-0.74379 0.037,-0.88374 v 0 0 c -0.0793,-0.0309 -0.1534,-0.0689 -0.222,-0.11278 -0.32422,-0.20759 -0.26933,-0.69933 0.0879,-0.84244 l 1.35147,-0.54127 -1.29412,0.37841 c -0.40942,0.11964 -0.76876,-0.32147 -0.55376,-0.68987 0.004,-0.007 0.008,-0.0137 0.0122,-0.0204 -0.0412,0.0138 -0.0825,0.0255 -0.12376,0.035 -0.41107,0.0941 -0.73734,-0.35262 -0.53826,-0.72431 l 0.66339,-1.23869 -0.75477,1.13153 c -0.24834,0.37238 -0.82474,0.24574 -0.89403,-0.19661 l -0.002,-0.0103 c -0.008,0.0126 -0.0155,0.025 -0.0236,0.0372 -0.24244,0.36949 -0.81266,0.25794 -0.90322,-0.17466 l -0.28045,-1.33954 0.1501,1.36039 c 0.0489,0.44235 -0.46265,0.72252 -0.80896,0.44317 -0.0141,-0.0114 -0.028,-0.0232 -0.0418,-0.0353 v 0 c 0.0664,0.44592 -0.44647,0.74379 -0.80087,0.46513 l -1.04249,-0.81953 0.98322,0.93972 c 0.30884,0.29513 0.13198,0.83119 -0.29417,0.86151 -0.0395,0.003 -0.0795,0.004 -0.12006,0.003 v 0 0 c 0.004,0.004 0.008,0.007 0.0114,0.0102 0.32998,0.29691 0.11182,0.84889 -0.33176,0.86302 l -1.28877,0.0412 1.25927,0.0815 c 0.4713,0.0304 0.68013,0.62867 0.31393,0.92695 l -0.009,0.007 c 0.0414,0.001 0.0822,0.004 0.12225,0.009 0.40833,0.0487 0.55925,0.56748 0.25274,0.84161 l -0.98926,0.88525 1.06815,-0.78454 c 0.33341,-0.24491 0.81061,0.0141 0.7715,0.42602 -0.004,0.0429 -0.0104,0.0862 -0.0191,0.12952 0.0435,-0.0349 0.0885,-0.0663 0.13474,-0.0944 0.3507,-0.21294 0.7914,0.0778 0.73308,0.48378 l -0.19181,1.33584 0.30528,-1.25228 c 0.10263,-0.42108 0.66586,-0.50766 0.88772,-0.13542 0.008,0.0136 0.0159,0.0273 0.0236,0.0413 0.0162,-0.0807 0.0395,-0.15779 0.0694,-0.23065 0.14777,-0.36125 0.65077,-0.39185 0.85657,-0.0602 l 0.73172,1.17887 -0.57379,-1.16103 c -0.19278,-0.39007 0.194,-0.81363 0.59986,-0.65694 l 0.009,0.004 c -0.0436,-0.0796 -0.0775,-0.16149 -0.10235,-0.24464 -0.11004,-0.36826 0.24422,-0.70757 0.60946,-0.58765 z"
       id="path15-0-84" />
    <path
       style="fill:#ffffff;stroke-width:0.264583"
       d="m 554.85819,127.43069 -1.20685,-0.52989 c -0.39612,-0.17384 -0.37224,-0.74379 0.037,-0.88374 v 0 0 c -0.0793,-0.0309 -0.1534,-0.0689 -0.222,-0.11278 -0.32422,-0.20759 -0.26933,-0.69933 0.0879,-0.84244 l 1.35147,-0.54127 -1.29412,0.37841 c -0.40942,0.11964 -0.76876,-0.32147 -0.55376,-0.68987 0.004,-0.007 0.008,-0.0137 0.0122,-0.0204 -0.0412,0.0138 -0.0825,0.0255 -0.12376,0.035 -0.41107,0.0941 -0.73734,-0.35262 -0.53826,-0.72431 l 0.66339,-1.23869 -0.75477,1.13153 c -0.24834,0.37238 -0.82474,0.24574 -0.89403,-0.19661 l -0.002,-0.0103 c -0.008,0.0126 -0.0155,0.025 -0.0236,0.0372 -0.24244,0.36949 -0.81266,0.25794 -0.90322,-0.17466 l -0.28045,-1.33954 0.1501,1.36039 c 0.0489,0.44235 -0.46265,0.72252 -0.80896,0.44317 -0.0141,-0.0114 -0.028,-0.0232 -0.0418,-0.0353 v 0 c 0.0664,0.44592 -0.44647,0.74379 -0.80087,0.46513 l -1.04249,-0.81953 0.98322,0.93972 c 0.30884,0.29513 0.13198,0.83119 -0.29417,0.86151 -0.0395,0.003 -0.0795,0.004 -0.12006,0.003 v 0 0 c 0.004,0.004 0.008,0.007 0.0114,0.0102 0.32998,0.29691 0.11182,0.84889 -0.33176,0.86302 l -1.28877,0.0412 1.25927,0.0815 c 0.4713,0.0304 0.68013,0.62867 0.31393,0.92695 l -0.009,0.007 c 0.0414,0.001 0.0822,0.004 0.12225,0.009 0.40833,0.0487 0.55925,0.56748 0.25274,0.84161 l -0.98926,0.88525 1.06815,-0.78454 c 0.33341,-0.24491 0.81061,0.0141 0.7715,0.42602 -0.004,0.0429 -0.0104,0.0862 -0.0191,0.12952 0.0435,-0.0349 0.0885,-0.0663 0.13474,-0.0944 0.3507,-0.21294 0.7914,0.0778 0.73308,0.48378 l -0.19181,1.33584 0.30528,-1.25228 c 0.10263,-0.42108 0.66586,-0.50766 0.88772,-0.13542 0.008,0.0136 0.0159,0.0273 0.0236,0.0413 0.0162,-0.0807 0.0395,-0.15779 0.0694,-0.23065 0.14777,-0.36125 0.65077,-0.39185 0.85657,-0.0602 l 0.73172,1.17887 -0.57379,-1.16103 c -0.19278,-0.39007 0.194,-0.81363 0.59986,-0.65694 l 0.009,0.004 c -0.0436,-0.0796 -0.0775,-0.16149 -0.10235,-0.24464 -0.11004,-0.36826 0.24422,-0.70757 0.60946,-0.58765 z"
       id="path15-0-610" />
    <path
       style="fill:#ffffff;stroke-width:0.264583"
       d="m 38.391519,106.52861 -1.20685,-0.52989 c -0.39612,-0.17384 -0.37224,-0.74379 0.037,-0.88374 v 0 0 c -0.0793,-0.0309 -0.1534,-0.0689 -0.222,-0.11278 -0.32422,-0.20759 -0.26933,-0.69933 0.0879,-0.84244 l 1.35147,-0.54127 -1.29412,0.37841 c -0.40942,0.11964 -0.76876,-0.32147 -0.55376,-0.68987 0.004,-0.007 0.008,-0.0137 0.0122,-0.0204 -0.0412,0.0138 -0.0825,0.0255 -0.12376,0.035 -0.41107,0.0941 -0.73734,-0.35262 -0.53826,-0.72431 l 0.66339,-1.23869 -0.75477,1.13153 c -0.24834,0.37238 -0.82474,0.24574 -0.89403,-0.19661 l -0.002,-0.0103 c -0.008,0.0126 -0.0155,0.025 -0.0236,0.0372 -0.24244,0.36949 -0.81266,0.25794 -0.90322,-0.17466 l -0.28045,-1.33954 0.1501,1.36039 c 0.0489,0.44235 -0.46265,0.72252 -0.80896,0.44317 -0.0141,-0.0114 -0.028,-0.0232 -0.0418,-0.0353 v 0 c 0.0664,0.44592 -0.44647,0.74379 -0.80087,0.46513 l -1.04249,-0.81953 0.98322,0.93972 c 0.30884,0.29513 0.13198,0.83119 -0.29417,0.86151 -0.0395,0.003 -0.0795,0.004 -0.12006,0.003 v 0 0 c 0.004,0.004 0.008,0.007 0.0114,0.0102 0.32998,0.29691 0.11182,0.84889 -0.33176,0.86302 l -1.28877,0.0412 1.25927,0.0815 c 0.4713,0.0304 0.68013,0.62867 0.31393,0.92695 l -0.009,0.007 c 0.0414,10e-4 0.0822,0.004 0.12225,0.009 0.40833,0.0487 0.55925,0.56748 0.25274,0.84161 l -0.98926,0.88525 1.06815,-0.78454 c 0.33341,-0.24491 0.81061,0.0141 0.7715,0.42602 -0.004,0.0429 -0.0104,0.0862 -0.0191,0.12952 0.0435,-0.0349 0.0885,-0.0663 0.13474,-0.0944 0.3507,-0.21294 0.7914,0.0778 0.73308,0.48378 l -0.19181,1.33584 0.30528,-1.25228 c 0.10263,-0.42108 0.66586,-0.50766 0.88772,-0.13542 0.008,0.0136 0.0159,0.0273 0.0236,0.0413 0.0162,-0.0807 0.0395,-0.15779 0.0694,-0.23065 0.14777,-0.36125 0.65077,-0.39185 0.85657,-0.0602 l 0.73172,1.17887 -0.57379,-1.16103 c -0.19278,-0.39007 0.194,-0.81363 0.59986,-0.65694 l 0.009,0.004 c -0.0436,-0.0796 -0.0775,-0.16149 -0.10235,-0.24464 -0.11004,-0.36826 0.24422,-0.70757 0.60946,-0.58765 z"
       id="path15-0-29" />
    <path
       style="fill:#ffffff;stroke-width:0.264583"
       d="m 279.69152,325.33903 -1.20685,-0.52989 c -0.39612,-0.17384 -0.37224,-0.74379 0.037,-0.88374 v 0 0 c -0.0793,-0.0309 -0.1534,-0.0689 -0.222,-0.11278 -0.32422,-0.20759 -0.26933,-0.69933 0.0879,-0.84244 l 1.35147,-0.54127 -1.29412,0.37841 c -0.40942,0.11964 -0.76876,-0.32147 -0.55376,-0.68987 0.004,-0.007 0.008,-0.0137 0.0122,-0.0204 -0.0412,0.0138 -0.0825,0.0255 -0.12376,0.035 -0.41107,0.0941 -0.73734,-0.35262 -0.53826,-0.72431 l 0.66339,-1.23869 -0.75477,1.13153 c -0.24834,0.37238 -0.82474,0.24574 -0.89403,-0.19661 l -0.002,-0.0103 c -0.008,0.0126 -0.0155,0.025 -0.0236,0.0372 -0.24244,0.36949 -0.81266,0.25794 -0.90322,-0.17466 l -0.28045,-1.33954 0.1501,1.36039 c 0.0489,0.44235 -0.46265,0.72252 -0.80896,0.44317 -0.0141,-0.0114 -0.028,-0.0232 -0.0418,-0.0353 v 0 c 0.0664,0.44592 -0.44647,0.74379 -0.80087,0.46513 l -1.04249,-0.81953 0.98322,0.93972 c 0.30884,0.29513 0.13198,0.83119 -0.29417,0.86151 -0.0395,0.003 -0.0795,0.004 -0.12006,0.003 v 0 0 c 0.004,0.004 0.008,0.007 0.0114,0.0102 0.32998,0.29691 0.11182,0.84889 -0.33176,0.86302 l -1.28877,0.0412 1.25927,0.0815 c 0.4713,0.0304 0.68013,0.62867 0.31393,0.92695 l -0.009,0.007 c 0.0414,10e-4 0.0822,0.004 0.12225,0.009 0.40833,0.0487 0.55925,0.56748 0.25274,0.84161 l -0.98926,0.88525 1.06815,-0.78454 c 0.33341,-0.24491 0.81061,0.0141 0.7715,0.42602 -0.004,0.0429 -0.0104,0.0862 -0.0191,0.12952 0.0435,-0.0349 0.0885,-0.0663 0.13474,-0.0944 0.3507,-0.21294 0.7914,0.0778 0.73308,0.48378 l -0.19181,1.33584 0.30528,-1.25228 c 0.10263,-0.42108 0.66586,-0.50766 0.88772,-0.13542 0.008,0.0136 0.0159,0.0273 0.0236,0.0413 0.0162,-0.0807 0.0395,-0.15779 0.0694,-0.23065 0.14777,-0.36125 0.65077,-0.39185 0.85657,-0.0602 l 0.73172,1.17887 -0.57379,-1.16103 c -0.19278,-0.39007 0.194,-0.81363 0.59986,-0.65694 l 0.009,0.004 c -0.0436,-0.0796 -0.0775,-0.16149 -0.10235,-0.24464 -0.11004,-0.36826 0.24422,-0.70757 0.60946,-0.58765 z"
       id="path15-0-85" />
    <path
       style="fill:#ffffff;stroke-width:0.264583"
       d="m 381.5561,336.45153 -1.20685,-0.52989 c -0.39612,-0.17384 -0.37224,-0.74379 0.037,-0.88374 v 0 0 c -0.0793,-0.0309 -0.1534,-0.0689 -0.222,-0.11278 -0.32422,-0.20759 -0.26933,-0.69933 0.0879,-0.84244 l 1.35147,-0.54127 -1.29412,0.37841 c -0.40942,0.11964 -0.76876,-0.32147 -0.55376,-0.68987 0.004,-0.007 0.008,-0.0137 0.0122,-0.0204 -0.0412,0.0138 -0.0825,0.0255 -0.12376,0.035 -0.41107,0.0941 -0.73734,-0.35262 -0.53826,-0.72431 l 0.66339,-1.23869 -0.75477,1.13153 c -0.24834,0.37238 -0.82474,0.24574 -0.89403,-0.19661 l -0.002,-0.0103 c -0.008,0.0126 -0.0155,0.025 -0.0236,0.0372 -0.24244,0.36949 -0.81266,0.25794 -0.90322,-0.17466 l -0.28045,-1.33954 0.1501,1.36039 c 0.0489,0.44235 -0.46265,0.72252 -0.80896,0.44317 -0.0141,-0.0114 -0.028,-0.0232 -0.0418,-0.0353 v 0 c 0.0664,0.44592 -0.44647,0.74379 -0.80087,0.46513 l -1.04249,-0.81953 0.98322,0.93972 c 0.30884,0.29513 0.13198,0.83119 -0.29417,0.86151 -0.0395,0.003 -0.0795,0.004 -0.12006,0.003 v 0 0 c 0.004,0.004 0.008,0.007 0.0114,0.0102 0.32998,0.29691 0.11182,0.84889 -0.33176,0.86302 l -1.28877,0.0412 1.25927,0.0815 c 0.4713,0.0304 0.68013,0.62867 0.31393,0.92695 l -0.009,0.007 c 0.0414,10e-4 0.0822,0.004 0.12225,0.009 0.40833,0.0487 0.55925,0.56748 0.25274,0.84161 l -0.98926,0.88525 1.06815,-0.78454 c 0.33341,-0.24491 0.81061,0.0141 0.7715,0.42602 -0.004,0.0429 -0.0104,0.0862 -0.0191,0.12952 0.0435,-0.0349 0.0885,-0.0663 0.13474,-0.0944 0.3507,-0.21294 0.7914,0.0778 0.73308,0.48378 l -0.19181,1.33584 0.30528,-1.25228 c 0.10263,-0.42108 0.66586,-0.50766 0.88772,-0.13542 0.008,0.0136 0.0159,0.0273 0.0236,0.0413 0.0162,-0.0807 0.0395,-0.15779 0.0694,-0.23065 0.14777,-0.36125 0.65077,-0.39185 0.85657,-0.0602 l 0.73172,1.17887 -0.57379,-1.16103 c -0.19278,-0.39007 0.194,-0.81363 0.59986,-0.65694 l 0.009,0.004 c -0.0436,-0.0796 -0.0775,-0.16149 -0.10235,-0.24464 -0.11004,-0.36826 0.24422,-0.70757 0.60946,-0.58765 z"
       id="path15-0-88" />
    <path
       style="fill:#ffffff;stroke-width:0.264583"
       d="m 274.13527,133.25153 -1.20685,-0.52989 c -0.39612,-0.17384 -0.37224,-0.74379 0.037,-0.88374 v 0 0 c -0.0793,-0.0309 -0.1534,-0.0689 -0.222,-0.11278 -0.32422,-0.20759 -0.26933,-0.69933 0.0879,-0.84244 l 1.35147,-0.54127 -1.29412,0.37841 c -0.40942,0.11964 -0.76876,-0.32147 -0.55376,-0.68987 0.004,-0.007 0.008,-0.0137 0.0122,-0.0204 -0.0412,0.0138 -0.0825,0.0255 -0.12376,0.035 -0.41107,0.0941 -0.73734,-0.35262 -0.53826,-0.72431 l 0.66339,-1.23869 -0.75477,1.13153 c -0.24834,0.37238 -0.82474,0.24574 -0.89403,-0.19661 l -0.002,-0.0103 c -0.008,0.0126 -0.0155,0.025 -0.0236,0.0372 -0.24244,0.36949 -0.81266,0.25794 -0.90322,-0.17466 l -0.28045,-1.33954 0.1501,1.36039 c 0.0489,0.44235 -0.46265,0.72252 -0.80896,0.44317 -0.0141,-0.0114 -0.028,-0.0232 -0.0418,-0.0353 v 0 c 0.0664,0.44592 -0.44647,0.74379 -0.80087,0.46513 l -1.04249,-0.81953 0.98322,0.93972 c 0.30884,0.29513 0.13198,0.83119 -0.29417,0.86151 -0.0395,0.003 -0.0795,0.004 -0.12006,0.003 v 0 0 c 0.004,0.004 0.008,0.007 0.0114,0.0102 0.32998,0.29691 0.11182,0.84889 -0.33176,0.86302 l -1.28877,0.0412 1.25927,0.0815 c 0.4713,0.0304 0.68013,0.62867 0.31393,0.92695 l -0.009,0.007 c 0.0414,0.001 0.0822,0.004 0.12225,0.009 0.40833,0.0487 0.55925,0.56748 0.25274,0.84161 l -0.98926,0.88525 1.06815,-0.78454 c 0.33341,-0.24491 0.81061,0.0141 0.7715,0.42602 -0.004,0.0429 -0.0104,0.0862 -0.0191,0.12952 0.0435,-0.0349 0.0885,-0.0663 0.13474,-0.0944 0.3507,-0.21294 0.7914,0.0778 0.73308,0.48378 l -0.19181,1.33584 0.30528,-1.25228 c 0.10263,-0.42108 0.66586,-0.50766 0.88772,-0.13542 0.008,0.0136 0.0159,0.0273 0.0236,0.0413 0.0162,-0.0807 0.0395,-0.15779 0.0694,-0.23065 0.14777,-0.36125 0.65077,-0.39185 0.85657,-0.0602 l 0.73172,1.17887 -0.57379,-1.16103 c -0.19278,-0.39007 0.194,-0.81363 0.59986,-0.65694 l 0.009,0.004 c -0.0436,-0.0796 -0.0775,-0.16149 -0.10235,-0.24464 -0.11004,-0.36826 0.24422,-0.70757 0.60946,-0.58765 z"
       id="path15-0-0" />
    <path
       style="fill:#ffffff;stroke-width:0.264583"
       d="m 259.58319,34.826527 -1.20685,-0.52989 c -0.39612,-0.17384 -0.37224,-0.74379 0.037,-0.88374 v 0 0 c -0.0793,-0.0309 -0.1534,-0.0689 -0.222,-0.11278 -0.32422,-0.20759 -0.26933,-0.69933 0.0879,-0.84244 l 1.35147,-0.54127 -1.29412,0.37841 c -0.40942,0.11964 -0.76876,-0.32147 -0.55376,-0.68987 0.004,-0.007 0.008,-0.0137 0.0122,-0.0204 -0.0412,0.0138 -0.0825,0.0255 -0.12376,0.035 -0.41107,0.0941 -0.73734,-0.35262 -0.53826,-0.72431 l 0.66339,-1.23869 -0.75477,1.13153 c -0.24834,0.37238 -0.82474,0.24574 -0.89403,-0.19661 l -0.002,-0.0103 c -0.008,0.0126 -0.0155,0.025 -0.0236,0.0372 -0.24244,0.36949 -0.81266,0.25794 -0.90322,-0.17466 l -0.28045,-1.33954 0.1501,1.36039 c 0.0489,0.44235 -0.46265,0.72252 -0.80896,0.44317 -0.0141,-0.0114 -0.028,-0.0232 -0.0418,-0.0353 v 0 c 0.0664,0.44592 -0.44647,0.74379 -0.80087,0.46513 l -1.04249,-0.81953 0.98322,0.93972 c 0.30884,0.29513 0.13198,0.83119 -0.29417,0.86151 -0.0395,0.003 -0.0795,0.004 -0.12006,0.003 v 0 0 c 0.004,0.004 0.008,0.007 0.0114,0.0102 0.32998,0.29691 0.11182,0.84889 -0.33176,0.86302 l -1.28877,0.0412 1.25927,0.0815 c 0.4713,0.0304 0.68013,0.62867 0.31393,0.92695 l -0.009,0.007 c 0.0414,10e-4 0.0822,0.004 0.12225,0.009 0.40833,0.0487 0.55925,0.56748 0.25274,0.84161 l -0.98926,0.88525 1.06815,-0.78454 c 0.33341,-0.24491 0.81061,0.0141 0.7715,0.42602 -0.004,0.0429 -0.0104,0.0862 -0.0191,0.12952 0.0435,-0.0349 0.0885,-0.0663 0.13474,-0.0944 0.3507,-0.21294 0.7914,0.0778 0.73308,0.48378 l -0.19181,1.33584 0.30528,-1.25228 c 0.10263,-0.42108 0.66586,-0.50766 0.88772,-0.13542 0.008,0.0136 0.0159,0.0273 0.0236,0.0413 0.0162,-0.0807 0.0395,-0.15779 0.0694,-0.23065 0.14777,-0.36125 0.65077,-0.39185 0.85657,-0.0602 l 0.73172,1.17887 -0.57379,-1.16103 c -0.19278,-0.39007 0.194,-0.81363 0.59986,-0.65694 l 0.009,0.004 c -0.0436,-0.0796 -0.0775,-0.16149 -0.10235,-0.24464 -0.11004,-0.36826 0.24422,-0.70757 0.60946,-0.58765 z"
       id="path15-0-7" />
    <path
       style="fill:#ffffff;stroke-width:0.264583"
       d="m 366.73944,57.31611 -1.20685,-0.52989 c -0.39612,-0.17384 -0.37224,-0.74379 0.037,-0.88374 v 0 0 c -0.0793,-0.0309 -0.1534,-0.0689 -0.222,-0.11278 -0.32422,-0.20759 -0.26933,-0.69933 0.0879,-0.84244 l 1.35147,-0.54127 -1.29412,0.37841 c -0.40942,0.11964 -0.76876,-0.32147 -0.55376,-0.68987 0.004,-0.007 0.008,-0.0137 0.0122,-0.0204 -0.0412,0.0138 -0.0825,0.0255 -0.12376,0.035 -0.41107,0.0941 -0.73734,-0.35262 -0.53826,-0.72431 l 0.66339,-1.23869 -0.75477,1.13153 c -0.24834,0.37238 -0.82474,0.24574 -0.89403,-0.19661 l -0.002,-0.0103 c -0.008,0.0126 -0.0155,0.025 -0.0236,0.0372 -0.24244,0.36949 -0.81266,0.25794 -0.90322,-0.17466 l -0.28045,-1.33954 0.1501,1.36039 c 0.0489,0.44235 -0.46265,0.72252 -0.80896,0.44317 -0.0141,-0.0114 -0.028,-0.0232 -0.0418,-0.0353 v 0 c 0.0664,0.44592 -0.44647,0.74379 -0.80087,0.46513 l -1.04249,-0.81953 0.98322,0.93972 c 0.30884,0.29513 0.13198,0.83119 -0.29417,0.86151 -0.0395,0.003 -0.0795,0.004 -0.12006,0.003 v 0 0 c 0.004,0.004 0.008,0.007 0.0114,0.0102 0.32998,0.29691 0.11182,0.84889 -0.33176,0.86302 l -1.28877,0.0412 1.25927,0.0815 c 0.4713,0.0304 0.68013,0.62867 0.31393,0.92695 l -0.009,0.007 c 0.0414,0.001 0.0822,0.004 0.12225,0.009 0.40833,0.0487 0.55925,0.56748 0.25274,0.84161 l -0.98926,0.88525 1.06815,-0.78454 c 0.33341,-0.24491 0.81061,0.0141 0.7715,0.42602 -0.004,0.0429 -0.0104,0.0862 -0.0191,0.12952 0.0435,-0.0349 0.0885,-0.0663 0.13474,-0.0944 0.3507,-0.21294 0.7914,0.0778 0.73308,0.48378 l -0.19181,1.33584 0.30528,-1.25228 c 0.10263,-0.42108 0.66586,-0.50766 0.88772,-0.13542 0.008,0.0136 0.0159,0.0273 0.0236,0.0413 0.0162,-0.0807 0.0395,-0.15779 0.0694,-0.23065 0.14777,-0.36125 0.65077,-0.39185 0.85657,-0.0602 l 0.73172,1.17887 -0.57379,-1.16103 c -0.19278,-0.39007 0.194,-0.81363 0.59986,-0.65694 l 0.009,0.004 c -0.0436,-0.0796 -0.0775,-0.16149 -0.10235,-0.24464 -0.11004,-0.36826 0.24422,-0.70757 0.60946,-0.58765 z"
       id="path15-0-04" />
    <path
       style="fill:#ffffff;stroke-width:0.264583"
       d="m 142.90194,57.31611 -1.20685,-0.52989 c -0.39612,-0.17384 -0.37224,-0.74379 0.037,-0.88374 v 0 0 c -0.0793,-0.0309 -0.1534,-0.0689 -0.222,-0.11278 -0.32422,-0.20759 -0.26933,-0.69933 0.0879,-0.84244 l 1.35147,-0.54127 -1.29412,0.37841 c -0.40942,0.11964 -0.76876,-0.32147 -0.55376,-0.68987 0.004,-0.007 0.008,-0.0137 0.0122,-0.0204 -0.0412,0.0138 -0.0825,0.0255 -0.12376,0.035 -0.41107,0.0941 -0.73734,-0.35262 -0.53826,-0.72431 l 0.66339,-1.23869 -0.75477,1.13153 c -0.24834,0.37238 -0.82474,0.24574 -0.89403,-0.19661 l -0.002,-0.0103 c -0.008,0.0126 -0.0155,0.025 -0.0236,0.0372 -0.24244,0.36949 -0.81266,0.25794 -0.90322,-0.17466 l -0.28045,-1.33954 0.1501,1.36039 c 0.0489,0.44235 -0.46265,0.72252 -0.80896,0.44317 -0.0141,-0.0114 -0.028,-0.0232 -0.0418,-0.0353 v 0 c 0.0664,0.44592 -0.44647,0.74379 -0.80087,0.46513 l -1.04249,-0.81953 0.98322,0.93972 c 0.30884,0.29513 0.13198,0.83119 -0.29417,0.86151 -0.0395,0.003 -0.0795,0.004 -0.12006,0.003 v 0 0 c 0.004,0.004 0.008,0.007 0.0114,0.0102 0.32998,0.29691 0.11182,0.84889 -0.33176,0.86302 l -1.28877,0.0412 1.25927,0.0815 c 0.4713,0.0304 0.68013,0.62867 0.31393,0.92695 l -0.009,0.007 c 0.0414,0.001 0.0822,0.004 0.12225,0.009 0.40833,0.0487 0.55925,0.56748 0.25274,0.84161 l -0.98926,0.88525 1.06815,-0.78454 c 0.33341,-0.24491 0.81061,0.0141 0.7715,0.42602 -0.004,0.0429 -0.0104,0.0862 -0.0191,0.12952 0.0435,-0.0349 0.0885,-0.0663 0.13474,-0.0944 0.3507,-0.21294 0.7914,0.0778 0.73308,0.48378 l -0.19181,1.33584 0.30528,-1.25228 c 0.10263,-0.42108 0.66586,-0.50766 0.88772,-0.13542 0.008,0.0136 0.0159,0.0273 0.0236,0.0413 0.0162,-0.0807 0.0395,-0.15779 0.0694,-0.23065 0.14777,-0.36125 0.65077,-0.39185 0.85657,-0.0602 l 0.73172,1.17887 -0.57379,-1.16103 c -0.19278,-0.39007 0.194,-0.81363 0.59986,-0.65694 l 0.009,0.004 c -0.0436,-0.0796 -0.0775,-0.16149 -0.10235,-0.24464 -0.11004,-0.36826 0.24422,-0.70757 0.60946,-0.58765 z"
       id="path15-0-204" />
  </g>
</svg>
