<?xml version="1.0" encoding="UTF-8" standalone="no"?>
<!-- Creator: CorelDRAW 2021 (64-Bit) -->

<svg
   xml:space="preserve"
   width="144.10289mm"
   height="55.563mm"
   version="1.1"
   style="clip-rule:evenodd;fill-rule:evenodd;image-rendering:optimizeQuality;shape-rendering:geometricPrecision;text-rendering:geometricPrecision"
   viewBox="0 0 14410.289 5556.2998"
   id="svg21"
   sodipodi:docname="math-helix.svg"
   inkscape:version="1.3.1 (91b66b0783, 2023-11-16)"
   xmlns:inkscape="http://www.inkscape.org/namespaces/inkscape"
   xmlns:sodipodi="http://sodipodi.sourceforge.net/DTD/sodipodi-0.dtd"
   xmlns="http://www.w3.org/2000/svg"
   xmlns:svg="http://www.w3.org/2000/svg"><sodipodi:namedview
   id="namedview21"
   pagecolor="#ffffff"
   bordercolor="#111111"
   borderopacity="1"
   inkscape:showpageshadow="0"
   inkscape:pageopacity="0"
   inkscape:pagecheckerboard="1"
   inkscape:deskcolor="#d1d1d1"
   inkscape:document-units="mm"
   inkscape:zoom="2.3160808"
   inkscape:cx="272.22712"
   inkscape:cy="104.91862"
   inkscape:window-width="1920"
   inkscape:window-height="1051"
   inkscape:window-x="-9"
   inkscape:window-y="-9"
   inkscape:window-maximized="1"
   inkscape:current-layer="Layer_x0020_1" />
 <defs
   id="defs1">
  <style
   type="text/css"
   id="style1">
   <![CDATA[
    .str0 {stroke:black;stroke-width:16.93;stroke-linecap:round;stroke-linejoin:round;stroke-miterlimit:22.9256}
    .fil0 {fill:#5F3C9A}
    .fil1 {fill:#ED5F5D}
   ]]>
  </style>
 </defs>
 <g
   id="Layer_x0020_1"
   inkscape:label="Layer 1"
   inkscape:groupmode="layer"
   transform="translate(-922.85504,-1793.8449)">
  <metadata
   id="CorelCorpID_0Corel-Layer" />
  <g
   id="_2252786342480">
   <g
   id="g10">
    <rect
   class="fil0 str0"
   x="1439.33"
   y="2098.6399"
   width="2540"
   height="254"
   rx="1270.01"
   ry="127"
   id="rect1" />
    <rect
   class="fil0 str0"
   x="1439.3199"
   y="6791.3398"
   width="2540"
   height="254"
   rx="1270.01"
   ry="127"
   id="rect2" />
    <rect
   class="fil0 str0"
   x="6858"
   y="2098.6399"
   width="2540"
   height="254"
   rx="1270.01"
   ry="127"
   id="rect3" />
    <rect
   class="fil0 str0"
   x="6857.9902"
   y="6791.3398"
   width="2540"
   height="254"
   rx="1270.01"
   ry="127"
   id="rect4" />
    <rect
   class="fil0 str0"
   x="12276.67"
   y="2098.6399"
   width="2540"
   height="254"
   rx="1270.01"
   ry="127"
   id="rect5" />
    <rect
   class="fil0 str0"
   x="12276.66"
   y="6791.3398"
   width="2540"
   height="254"
   rx="1270.01"
   ry="127"
   id="rect6" />
    <rect
   class="fil0 str0"
   transform="matrix(1.12016,1.94017,-0.0909454,0.0525073,4173.96,2162.12)"
   width="2418.71"
   height="2418.71"
   rx="1209.36"
   ry="1209.36"
   id="rect7"
   x="0"
   y="0" />
    <rect
   class="fil0 str0"
   transform="matrix(-1.12016,1.94017,0.0909454,0.0525073,6663.32,2162.12)"
   width="2418.71"
   height="2418.71"
   rx="1209.36"
   ry="1209.36"
   id="rect8"
   x="0"
   y="0" />
    <rect
   class="fil0 str0"
   transform="matrix(1.12016,1.94017,-0.0909454,0.0525073,9592.64,2162.13)"
   width="2418.71"
   height="2418.71"
   rx="1209.36"
   ry="1209.36"
   id="rect9"
   x="0"
   y="0" />
    <rect
   class="fil0 str0"
   transform="matrix(-1.12016,1.94017,0.0909454,0.0525073,12082,2162.13)"
   width="2418.71"
   height="2418.71"
   rx="1209.36"
   ry="1209.36"
   id="rect10"
   x="0"
   y="0" />
   </g>
   <g
   id="g21">
    <circle
   class="fil1 str0"
   cx="1354.65"
   cy="2225.6399"
   r="423.32999"
   id="circle10" />
    <circle
   class="fil1 str0"
   cx="14901.35"
   cy="2225.6399"
   r="423.32999"
   id="circle11" />
    <circle
   class="fil1 str0"
   cx="1354.65"
   cy="6918.3501"
   r="423.32999"
   id="circle12" />
    <circle
   class="fil1 str0"
   cx="14901.35"
   cy="6918.3501"
   r="423.32999"
   id="circle13" />
    <circle
   class="fil1 str0"
   cx="4064"
   cy="2225.6399"
   r="423.32999"
   id="circle14" />
    <circle
   class="fil1 str0"
   cx="6773.3301"
   cy="6918.3501"
   r="423.32999"
   id="circle15" />
    <circle
   class="fil1 str0"
   cx="6773.3301"
   cy="2225.6399"
   r="423.32999"
   id="circle16" />
    <circle
   class="fil1 str0"
   cx="4064"
   cy="6918.3501"
   r="423.32999"
   id="circle17" />
    <circle
   class="fil1 str0"
   cx="9482.6797"
   cy="2225.6399"
   r="423.32999"
   id="circle18" />
    <circle
   class="fil1 str0"
   cx="12192"
   cy="2225.6399"
   r="423.32999"
   id="circle19" />
    <circle
   class="fil1 str0"
   cx="9482.6797"
   cy="6918.3501"
   r="423.32999"
   id="circle20" />
    <circle
   class="fil1 str0"
   cx="12192"
   cy="6918.3501"
   r="423.32999"
   id="circle21" />
   </g>
  </g>
 </g>
</svg>
